<svg width="80" height="80" viewBox="0 0 80 80" fill="none" xmlns="http://www.w3.org/2000/svg">
<path d="M39.9665 3.33398C39.046 3.33398 38.2998 4.08018 38.2998 5.00065V40.2155C36.5683 40.6216 34.9712 41.6677 33.9411 43.36L30.8942 48.3698L27.9808 44.4342C27.2359 43.4285 26.0551 42.9002 24.8883 42.901C23.7216 42.9019 22.5691 43.4319 21.8773 44.5482L3.60253 74.0599C2.91171 75.3092 4.0811 76.6674 4.96646 76.6674H74.9632C76.7299 76.6674 76.8165 74.8145 76.3955 74.1511C70.2913 64.2853 64.1695 54.414 58.0556 44.5482C57.3639 43.4319 56.2113 42.9019 55.0446 42.9011C53.8778 42.9003 52.697 43.4286 51.9521 44.4343L49.0387 48.3698L45.9919 43.36C44.9621 41.6677 43.3646 40.6216 41.6331 40.2155V28.334H69.9665C71.5239 28.333 72.2293 26.3866 71.0342 25.388L62.5674 18.3307L71.0342 11.2734C72.2293 10.2749 71.5239 8.32844 69.9665 8.32747H41.6331V5.00065C41.6331 4.08018 40.8869 3.33398 39.9665 3.33398ZM39.9665 43.2624C41.1832 43.2624 42.3999 43.8734 43.1435 45.0951L60.3343 73.334H19.5986L36.7894 45.0951C37.533 43.8734 38.7497 43.2624 39.9665 43.2624ZM29.0225 51.4427L15.6989 73.334H7.96127L24.7093 46.306C24.8718 46.0538 25.2013 46.1708 25.2865 46.3026C26.4069 48.0729 27.7621 49.7413 29.0225 51.4427ZM55.3163 46.4471L71.9717 73.334H64.234L50.9105 51.4427L54.6312 46.4199C54.798 46.1825 55.1687 46.2313 55.3163 46.4471Z" fill="#072D4C"/>
<path d="M33.863 56.6962L28.5179 65.482C28.0405 66.2678 28.2896 67.2917 29.0746 67.7704C29.8604 68.2479 30.8843 67.9988 31.363 67.2138L36.7113 58.428C37.1887 57.6422 36.9397 56.6183 36.1547 56.1396C35.2764 55.652 34.3459 55.9634 33.863 56.6962Z" fill="#072D4C"/>
<path d="M40.0531 52.5885C40.0531 53.0306 39.8775 53.4545 39.5649 53.7671C39.2523 54.0796 38.8284 54.2552 38.3864 54.2552C37.9444 54.2552 37.5204 54.0796 37.2079 53.7671C36.8953 53.4545 36.7197 53.0306 36.7197 52.5885C36.7197 52.1465 36.8953 51.7226 37.2079 51.4101C37.5204 51.0975 37.9444 50.9219 38.3864 50.9219C38.8284 50.9219 39.2523 51.0975 39.5649 51.4101C39.8775 51.7226 40.0531 52.1465 40.0531 52.5885Z" fill="#072D4C"/>
<path d="M38.3866 8.66211C38.3866 7.55754 39.282 6.66211 40.3866 6.66211H73.8178C75.5476 6.66211 76.4617 8.70934 75.3069 9.99724L69.141 16.8743C68.4793 17.6123 68.458 18.7238 69.091 19.4866L75.5777 27.3034C76.6593 28.6068 75.7323 30.5806 74.0386 30.5806H40.3866C39.282 30.5806 38.3866 29.6852 38.3866 28.5806V8.66211Z" fill="#FFC5C5"/>
<path d="M38.0352 5.29889C38.0352 4.2137 38.9149 3.33398 40.0001 3.33398C41.0852 3.33398 41.965 4.2137 41.965 5.29889V40.1538H38.0352V5.29889Z" fill="#FFC5C5"/>
</svg>
