<svg width="14" height="12" viewBox="0 0 14 12" fill="none" xmlns="http://www.w3.org/2000/svg">
<path d="M1.12549 11.2939H13.1336M3.74326 8.53208L2.3263 8.29192L1.12549 5.89029L1.78593 5.56007C1.95354 5.47561 2.13862 5.43162 2.3263 5.43162C2.51399 5.43162 2.69906 5.47561 2.86667 5.56007L2.96873 5.62011C3.13634 5.70457 3.32141 5.74856 3.5091 5.74856C3.69679 5.74856 3.88186 5.70457 4.04947 5.62011L4.72792 5.28989L2.92671 1.68745L3.46707 1.41727C3.66681 1.31901 3.88993 1.2782 4.11152 1.29941C4.33311 1.32061 4.54444 1.40299 4.72192 1.53735L7.13555 3.33857C7.31365 3.47409 7.52607 3.55714 7.74886 3.57836C7.97165 3.59958 8.19593 3.55811 8.3964 3.45865L10.9121 2.22181C11.2334 2.05919 11.604 2.02278 11.9508 2.11974L12.5332 2.28786C12.6535 2.32127 12.7649 2.38108 12.8592 2.46294C12.9535 2.54479 13.0284 2.64663 13.0785 2.76106C13.1285 2.87549 13.1524 2.99963 13.1484 3.12445C13.1445 3.24927 13.1127 3.37164 13.0556 3.48266L12.8274 3.93897C12.6893 4.21516 12.4672 4.44331 12.185 4.58741L4.47575 8.412C4.24907 8.52428 3.99271 8.5621 3.74326 8.52007V8.53208Z" stroke="#072D4C" stroke-width="0.8" stroke-linecap="round" stroke-linejoin="round"/>
</svg>
