<svg width="12" height="12" viewBox="0 0 12 12" fill="none" xmlns="http://www.w3.org/2000/svg">
<path d="M1.0083 11.2939H11.2647M1.91599 5.53497L1.0083 4.62728L2.03394 2.31959L2.59804 2.60164C2.8801 2.74523 3.05958 3.03241 3.05958 3.34523C3.05958 3.65805 3.23907 3.94523 3.52112 4.08882L4.08522 4.37087L5.62369 1.29395L6.16215 1.56574C6.31179 1.64027 6.44095 1.75026 6.53837 1.88611C6.6358 2.02197 6.69853 2.17958 6.72112 2.34523L7.09035 5.11446C7.11294 5.2801 7.17568 5.43772 7.2731 5.57357C7.37053 5.70943 7.49968 5.81941 7.64933 5.89395L9.90574 7.02215C10.1211 7.13497 10.3057 7.3042 10.4237 7.51446L10.7314 8.04266C10.9827 8.49395 10.7006 9.05805 10.1878 9.11959L9.58266 9.19651C9.34163 9.22728 9.09548 9.18625 8.8801 9.07343L2.18266 5.72984C2.08383 5.67972 1.99377 5.61391 1.91599 5.53497Z" stroke="#072D4C" stroke-width="0.8" stroke-linecap="round" stroke-linejoin="round"/>
</svg>
