<svg width="151" height="84" viewBox="0 0 151 84" fill="none" xmlns="http://www.w3.org/2000/svg">
<path d="M10.0533 82.8424H81.6791C86.9986 82.8424 91.3261 78.515 91.3261 73.1954C91.3261 68.9686 91.3261 29.4732 91.3261 22.92C91.3261 17.6009 86.9986 13.2734 81.6791 13.2734H10.0533C4.73367 13.2734 0.40625 17.6009 0.40625 22.92V73.1954C0.40625 78.515 4.73367 82.8424 10.0533 82.8424ZM2.45259 22.9198C2.45259 18.7293 5.86187 15.3196 10.0533 15.3196H81.6791C85.8707 15.3196 89.2797 18.7293 89.2797 22.9198V62.8474C89.2797 67.0379 85.8704 70.4476 81.6791 70.4476H10.0533C5.86166 70.4476 2.45259 67.0379 2.45259 62.8474C2.45259 49.0229 2.45259 36.7442 2.45259 22.9198ZM2.45259 68.7671C4.21956 71.0306 6.96583 72.494 10.0533 72.494H81.6791C84.7667 72.494 87.5128 71.0304 89.2797 68.7671V73.1954C89.2797 77.3863 85.8704 80.796 81.6791 80.796H10.0533C5.86166 80.796 2.45259 77.3863 2.45259 73.1954V68.7671Z" fill="#072D4C"/>
<path d="M86.2955 9.60344C86.8611 9.60344 87.3186 9.14533 87.3186 8.58037V1.66955C87.3186 1.10459 86.8609 0.646484 86.2955 0.646484C85.7299 0.646484 85.2725 1.10459 85.2725 1.66955V8.58037C85.2725 9.14533 85.7301 9.60344 86.2955 9.60344Z" fill="#072D4C"/>
<path d="M94.4713 12.3928L99.3583 7.50641C99.758 7.10667 99.758 6.45931 99.3583 6.05957C98.9585 5.65983 98.3112 5.65983 97.9114 6.05957L93.0244 10.9459C92.6247 11.3457 92.6247 11.993 93.0244 12.3928C93.4242 12.7923 94.0715 12.7923 94.4713 12.3928Z" fill="#072D4C"/>
<path d="M103.745 18.0957H96.8346C96.269 18.0957 95.8115 18.5538 95.8115 19.1188C95.8115 19.6837 96.2692 20.1418 96.8346 20.1418H103.745C104.31 20.1418 104.768 19.6837 104.768 19.1188C104.768 18.5538 104.31 18.0957 103.745 18.0957Z" fill="#072D4C"/>
<path d="M64.9223 56.2855C64.7356 56.2855 64.577 56.2295 64.4463 56.1175C64.3343 55.9869 64.2783 55.8282 64.2783 55.6415V49.0055L57.5303 37.6095C57.4743 37.4975 57.4463 37.3762 57.4463 37.2455C57.4463 37.0962 57.5023 36.9655 57.6143 36.8535C57.7263 36.7415 57.857 36.6855 58.0063 36.6855H59.3503C59.6863 36.6855 59.929 36.8442 60.0783 37.1615L65.6223 46.3175L71.1383 37.1615C71.325 36.8442 71.5676 36.6855 71.8663 36.6855H73.2103C73.3596 36.6855 73.4903 36.7415 73.6023 36.8535C73.733 36.9655 73.7983 37.0962 73.7983 37.2455C73.7983 37.3389 73.761 37.4602 73.6863 37.6095L66.9383 49.0055V55.6415C66.9383 55.8282 66.873 55.9869 66.7423 56.1175C66.6303 56.2295 66.4716 56.2855 66.2663 56.2855H64.9223Z" fill="#072D4C"/>
<path d="M47.1091 56.5655C44.7011 56.5655 42.8438 55.9215 41.5371 54.6335C40.2305 53.3269 39.5771 51.3575 39.5771 48.7255V37.3575C39.5771 37.1522 39.6331 36.9935 39.7451 36.8815C39.8571 36.7509 40.0065 36.6855 40.1931 36.6855H41.5371C41.7425 36.6855 41.9011 36.7509 42.0131 36.8815C42.1438 36.9935 42.2091 37.1522 42.2091 37.3575V48.7815C42.2091 50.6109 42.6292 51.9735 43.4692 52.8695C44.3278 53.7655 45.5412 54.2135 47.1091 54.2135C48.6585 54.2135 49.8531 53.7655 50.6931 52.8695C51.5518 51.9549 51.9812 50.5922 51.9812 48.7815V37.3575C51.9812 37.1522 52.0372 36.9935 52.1492 36.8815C52.2612 36.7509 52.4198 36.6855 52.6251 36.6855H53.9692C54.1558 36.6855 54.3051 36.7509 54.4171 36.8815C54.5478 36.9935 54.6131 37.1522 54.6131 37.3575V48.7255C54.6131 51.3575 53.9598 53.3269 52.6531 54.6335C51.3651 55.9215 49.5171 56.5655 47.1091 56.5655Z" fill="#072D4C"/>
<path d="M21.993 56.2855C21.8063 56.2855 21.657 56.2295 21.545 56.1175C21.433 55.9869 21.377 55.8282 21.377 55.6415V37.3575C21.377 37.1522 21.433 36.9935 21.545 36.8815C21.657 36.7509 21.8063 36.6855 21.993 36.6855H29.637C31.6156 36.6855 33.109 37.1615 34.117 38.1135C35.125 39.0655 35.629 40.3069 35.629 41.8375C35.629 42.8829 35.3863 43.7602 34.901 44.4695C34.4156 45.1602 33.8463 45.6642 33.193 45.9815C33.9956 46.3735 34.6676 46.9802 35.209 47.8015C35.7503 48.6229 36.021 49.5655 36.021 50.6295C36.021 51.6749 35.7783 52.6269 35.293 53.4855C34.8263 54.3442 34.1263 55.0255 33.193 55.5295C32.2596 56.0335 31.149 56.2855 29.861 56.2855H21.993ZM29.217 45.0015C30.4303 45.0015 31.3543 44.7309 31.989 44.1895C32.6236 43.6295 32.941 42.8549 32.941 41.8655C32.941 40.8949 32.6236 40.1575 31.989 39.6535C31.373 39.1495 30.449 38.8975 29.217 38.8975H24.009V45.0015H29.217ZM29.497 54.0735C30.6916 54.0735 31.625 53.7562 32.297 53.1215C32.9876 52.4682 33.333 51.6375 33.333 50.6295C33.333 49.6029 32.9876 48.7722 32.297 48.1375C31.625 47.5029 30.6916 47.1855 29.497 47.1855H24.009V54.0735H29.497Z" fill="#072D4C"/>
<path d="M140.592 25.2852H108.844C106.597 25.2852 104.768 27.1623 104.768 29.4692V78.4767C104.768 78.7533 104.901 79.012 105.123 79.1681L109.906 82.5153C110.183 82.709 110.548 82.709 110.825 82.5153L115.147 79.4896L119.47 82.5153C119.747 82.7094 120.111 82.7086 120.388 82.5153L124.71 79.4896L129.032 82.5153C129.17 82.6122 129.33 82.6608 129.491 82.6608C129.651 82.6608 129.812 82.6122 129.951 82.5153L134.277 79.4892L138.607 82.5158C138.882 82.7094 139.248 82.7094 139.524 82.5158L144.313 79.1685C144.536 79.0124 144.669 78.7537 144.669 78.4767V29.4692C144.669 27.1623 142.84 25.2852 140.592 25.2852ZM143.039 78.0342L139.065 80.8115L134.735 77.785C134.598 77.6881 134.437 77.6399 134.277 77.6399C134.117 77.6399 133.956 77.6885 133.817 77.7854L129.491 80.8111L125.169 77.7854C124.892 77.5917 124.527 77.5917 124.25 77.7854L119.929 80.8111L115.606 77.7854C115.329 77.5917 114.964 77.5917 114.687 77.7854L110.365 80.8111L106.398 78.0346V29.4692C106.398 28.0849 107.496 26.9588 108.844 26.9588H140.592C141.941 26.9588 143.039 28.0849 143.039 29.4692V78.0342Z" fill="#072D4C"/>
<path d="M139.803 57.2539H109.991C109.54 57.2539 109.176 57.6286 109.176 58.0907V62.7455C109.176 63.2077 109.54 63.5823 109.991 63.5823H139.803C140.253 63.5823 140.618 63.2077 140.618 62.7455V58.0907C140.618 57.6286 140.253 57.2539 139.803 57.2539ZM138.987 61.9087H110.807V58.9275H138.987V61.9087Z" fill="#072D4C"/>
<path d="M139.777 66.2246H109.66C109.209 66.2246 108.845 66.5993 108.845 67.0614C108.845 67.5236 109.209 67.8982 109.66 67.8982H139.777C140.228 67.8982 140.593 67.5236 140.593 67.0614C140.593 66.5993 140.228 66.2246 139.777 66.2246Z" fill="#072D4C"/>
<path d="M136.44 70.541H112.998C112.547 70.541 112.183 70.9157 112.183 71.3778C112.183 71.84 112.547 72.2147 112.998 72.2147H136.44C136.89 72.2147 137.255 71.84 137.255 71.3778C137.255 70.9157 136.89 70.541 136.44 70.541Z" fill="#072D4C"/>
<path d="M113.153 54.2551H136.639C138.829 54.2551 140.592 52.4812 140.592 50.2913V33.5673C140.592 31.3774 138.829 29.6035 136.639 29.6035H113.153C110.974 29.6035 109.2 31.3774 109.2 33.5673V50.2913C109.2 52.4812 110.974 54.2551 113.153 54.2551ZM135.709 44.8391V48.2768C135.709 48.7804 135.303 49.1857 134.8 49.1857H128.679C128.175 49.1857 127.77 48.7804 127.77 48.2768V44.8391C127.77 44.3354 128.175 43.9302 128.679 43.9302H134.8C135.303 43.9302 135.709 44.3354 135.709 44.8391ZM120.905 31.2459H128.887V38.2315C128.887 38.779 128.307 39.1078 127.836 38.834L125.252 37.3226C125.033 37.2023 124.759 37.2023 124.54 37.3226L121.956 38.834C121.485 39.1078 120.905 38.779 120.905 38.2315V31.2459ZM113.258 43.9403H120.662C121.116 43.9403 121.483 44.3076 121.483 44.7615C121.483 45.2154 121.116 45.5827 120.662 45.5827H113.258C112.804 45.5827 112.436 45.2154 112.436 44.7615C112.436 44.3076 112.804 43.9403 113.258 43.9403ZM113.258 47.7389H118.176C118.629 47.7389 118.997 48.1068 118.997 48.5601C118.997 49.0135 118.629 49.3813 118.176 49.3813H113.258C112.804 49.3813 112.436 49.0135 112.436 48.5601C112.436 48.1068 112.804 47.7389 113.258 47.7389Z" fill="#FFC5C5"/>
</svg>
