<svg width="48" height="49" viewBox="0 0 48 49" fill="none" xmlns="http://www.w3.org/2000/svg">
<path d="M12.1196 18.7209C11.312 18.7209 10.6571 19.3758 10.6571 20.1834C10.6571 20.9911 11.312 21.6459 12.1196 21.6459H27.8009C28.6085 21.6459 29.2634 20.9911 29.2634 20.1834C29.2634 19.3758 28.6085 18.7209 27.8009 18.7209H12.1196Z" fill="white"/>
<path d="M19.1705 27.0231H12.1196C11.312 27.0231 10.6571 27.6779 10.6571 28.4856C10.6571 29.2932 11.312 29.9481 12.1196 29.9481H19.1705C19.9781 29.9481 20.633 29.2932 20.633 28.4856C20.633 27.6779 19.9781 27.0231 19.1705 27.0231Z" fill="white"/>
<path d="M18.9544 45.6391H7.82311C5.42949 45.6391 3.48436 43.6858 3.48436 41.2841V11.6603C3.48436 9.25857 5.42949 7.30532 7.82311 7.30532H10.844V7.67257C10.844 9.80619 12.5795 11.5401 14.7131 11.5401H28.6881C30.8217 11.5401 32.5572 9.80619 32.5572 7.67257V7.30532H35.5635C37.9961 7.30532 39.9006 9.21794 39.9006 11.6603V19.9966C39.9006 20.8042 40.5555 21.4591 41.3631 21.4591C42.1707 21.4591 42.8256 20.8042 42.8256 19.9966V11.6603C42.8256 7.64657 39.5675 4.38032 35.5619 4.38032H32.5556V4.00657C32.5556 1.87294 30.8201 0.139069 28.6865 0.139069H14.7115C12.5779 0.139069 10.8424 1.87294 10.8424 4.00657V4.38032H7.82311C3.81749 4.38032 0.557739 7.64657 0.557739 11.6603V41.2841C0.557739 45.2978 3.81749 48.5641 7.82311 48.5641H18.9544C19.762 48.5641 20.4169 47.9092 20.4169 47.1016C20.4169 46.2939 19.762 45.6391 18.9544 45.6391ZM13.7706 4.00657C13.7706 3.48657 14.1931 3.06407 14.7131 3.06407H28.6881C29.2081 3.06407 29.6306 3.48657 29.6306 4.00657V7.67094C29.6306 8.19094 29.2081 8.61344 28.6881 8.61344H14.7131C14.1931 8.61344 13.7706 8.19094 13.7706 7.67094V4.00657Z" fill="white"/>
<path d="M45.8888 26.5583C43.8868 24.5547 40.3914 24.5531 38.3878 26.5583L25.4219 39.5242C25.0043 39.9418 24.7313 40.4716 24.6321 41.0549L23.9204 45.2621C23.7693 46.1639 24.0666 47.0902 24.7134 47.7353C25.248 48.2699 25.9711 48.5624 26.7138 48.5624C26.8714 48.5624 27.0274 48.5494 27.1834 48.5234L31.3889 47.8133C31.9723 47.7142 32.502 47.4412 32.9196 47.0236L45.8855 34.0577C47.9541 31.9907 47.9541 28.6269 45.8888 26.5583Z" fill="#FFC5C5"/>
</svg>
