<svg width="215" height="83" viewBox="0 0 215 83" fill="none" xmlns="http://www.w3.org/2000/svg">
<path d="M73.9257 82.0716H145.442C150.753 82.0716 155.074 77.7509 155.074 72.4394C155.074 68.2191 155.074 28.7843 155.074 22.2412C155.074 16.9302 150.753 12.6094 145.442 12.6094H73.9257C68.6142 12.6094 64.2935 16.9302 64.2935 22.2412V72.4394C64.2935 77.7509 68.6142 82.0716 73.9257 82.0716ZM66.3367 22.2409C66.3367 18.0568 69.7407 14.6524 73.9257 14.6524H145.442C149.627 14.6524 153.031 18.0568 153.031 22.2409V62.1073C153.031 66.2914 149.627 69.6959 145.442 69.6959H73.9257C69.7405 69.6959 66.3367 66.2914 66.3367 62.1073C66.3367 48.3041 66.3367 36.0442 66.3367 22.2409ZM66.3367 68.018C68.1009 70.278 70.843 71.7391 73.9257 71.7391H145.442C148.525 71.7391 151.266 70.2778 153.031 68.018V72.4394C153.031 76.624 149.627 80.0285 145.442 80.0285H73.9257C69.7405 80.0285 66.3367 76.624 66.3367 72.4394V68.018Z" fill="#072D4C"/>
<path d="M150.05 8.94322C150.615 8.94322 151.072 8.48582 151.072 7.92173V1.0215C151.072 0.457403 150.615 0 150.05 0C149.486 0 149.029 0.457403 149.029 1.0215V7.92173C149.029 8.48582 149.486 8.94322 150.05 8.94322Z" fill="#072D4C"/>
<path d="M158.214 11.7264L163.093 6.84748C163.492 6.44835 163.492 5.80199 163.093 5.40286C162.694 5.00373 162.048 5.00373 161.649 5.40286L156.769 10.2817C156.37 10.6809 156.37 11.3272 156.769 11.7264C157.168 12.1253 157.815 12.1253 158.214 11.7264Z" fill="#072D4C"/>
<path d="M167.473 17.4238H160.573C160.009 17.4238 159.552 17.8812 159.552 18.4453C159.552 19.0094 160.009 19.4668 160.573 19.4668H167.473C168.038 19.4668 168.494 19.0094 168.494 18.4453C168.495 17.8812 168.038 17.4238 167.473 17.4238Z" fill="#072D4C"/>
<path d="M128.765 55.35C128.578 55.35 128.419 55.294 128.289 55.182C128.177 55.0513 128.121 54.8927 128.121 54.706V48.07L121.373 36.674C121.317 36.562 121.289 36.4407 121.289 36.31C121.289 36.1607 121.345 36.03 121.457 35.918C121.569 35.806 121.699 35.75 121.849 35.75H123.193C123.529 35.75 123.771 35.9087 123.921 36.226L129.465 45.382L134.981 36.226C135.167 35.9087 135.41 35.75 135.709 35.75H137.053C137.202 35.75 137.333 35.806 137.445 35.918C137.575 36.03 137.641 36.1607 137.641 36.31C137.641 36.4033 137.603 36.5247 137.529 36.674L130.781 48.07V54.706C130.781 54.8927 130.715 55.0513 130.585 55.182C130.473 55.294 130.314 55.35 130.109 55.35H128.765Z" fill="#072D4C"/>
<path d="M110.951 55.63C108.543 55.63 106.686 54.986 105.379 53.698C104.072 52.3913 103.419 50.422 103.419 47.79V36.422C103.419 36.2167 103.475 36.058 103.587 35.946C103.699 35.8153 103.848 35.75 104.035 35.75H105.379C105.584 35.75 105.743 35.8153 105.855 35.946C105.986 36.058 106.051 36.2167 106.051 36.422V47.846C106.051 49.6753 106.471 51.038 107.311 51.934C108.17 52.83 109.383 53.278 110.951 53.278C112.5 53.278 113.695 52.83 114.535 51.934C115.394 51.0193 115.823 49.6567 115.823 47.846V36.422C115.823 36.2167 115.879 36.058 115.991 35.946C116.103 35.8153 116.262 35.75 116.467 35.75H117.811C117.998 35.75 118.147 35.8153 118.259 35.946C118.39 36.058 118.455 36.2167 118.455 36.422V47.79C118.455 50.422 117.802 52.3913 116.495 53.698C115.207 54.986 113.359 55.63 110.951 55.63Z" fill="#072D4C"/>
<path d="M85.8352 55.35C85.6486 55.35 85.4992 55.294 85.3872 55.182C85.2752 55.0513 85.2192 54.8927 85.2192 54.706V36.422C85.2192 36.2167 85.2752 36.058 85.3872 35.946C85.4992 35.8153 85.6486 35.75 85.8352 35.75H93.4792C95.4579 35.75 96.9512 36.226 97.9592 37.178C98.9672 38.13 99.4712 39.3713 99.4712 40.902C99.4712 41.9473 99.2286 42.8247 98.7432 43.534C98.2579 44.2247 97.6886 44.7287 97.0352 45.046C97.8379 45.438 98.5099 46.0447 99.0512 46.866C99.5926 47.6873 99.8632 48.63 99.8632 49.694C99.8632 50.7393 99.6206 51.6913 99.1352 52.55C98.6686 53.4087 97.9686 54.09 97.0352 54.594C96.1019 55.098 94.9912 55.35 93.7032 55.35H85.8352ZM93.0592 44.066C94.2726 44.066 95.1966 43.7953 95.8312 43.254C96.4659 42.694 96.7832 41.9193 96.7832 40.93C96.7832 39.9593 96.4659 39.222 95.8312 38.718C95.2152 38.214 94.2912 37.962 93.0592 37.962H87.8512V44.066H93.0592ZM93.3392 53.138C94.5339 53.138 95.4672 52.8207 96.1392 52.186C96.8299 51.5327 97.1752 50.702 97.1752 49.694C97.1752 48.6673 96.8299 47.8367 96.1392 47.202C95.4672 46.5673 94.5339 46.25 93.3392 46.25H87.8512V53.138H93.3392Z" fill="#072D4C"/>
<path d="M204.265 24.6016H172.566C170.321 24.6016 168.495 26.4758 168.495 28.7792V77.7116C168.495 77.9878 168.628 78.246 168.85 78.4019L173.625 81.744C173.902 81.9374 174.266 81.9374 174.543 81.744L178.858 78.7229L183.175 81.744C183.451 81.9378 183.815 81.937 184.092 81.744L188.407 78.7229L192.722 81.744C192.86 81.8407 193.02 81.8892 193.181 81.8892C193.341 81.8892 193.501 81.8407 193.64 81.744L197.959 78.7225L202.282 81.7444C202.557 81.9378 202.923 81.9378 203.198 81.7444L207.979 78.4023C208.202 78.2464 208.336 77.9882 208.336 77.7116V28.7792C208.336 26.4758 206.509 24.6016 204.265 24.6016ZM206.707 77.2697L202.74 80.0427L198.417 77.0209C198.279 76.9242 198.119 76.876 197.959 76.876C197.799 76.876 197.639 76.9246 197.5 77.0213L193.181 80.0423L188.865 77.0213C188.589 76.8279 188.225 76.8279 187.948 77.0213L183.633 80.0423L179.317 77.0213C179.04 76.8279 178.676 76.8279 178.4 77.0213L174.084 80.0423L170.123 77.2701V28.7792C170.123 27.397 171.219 26.2726 172.566 26.2726H204.265C205.612 26.2726 206.707 27.397 206.707 28.7792V77.2697Z" fill="#072D4C"/>
<path d="M203.477 56.5215H173.711C173.261 56.5215 172.896 56.8956 172.896 57.357V62.0047C172.896 62.4661 173.261 62.8402 173.711 62.8402H203.477C203.927 62.8402 204.291 62.4661 204.291 62.0047V57.357C204.291 56.8956 203.927 56.5215 203.477 56.5215ZM202.662 61.1691H174.525V58.1926H202.662V61.1691Z" fill="#072D4C"/>
<path d="M203.451 65.4785H173.38C172.93 65.4785 172.565 65.8526 172.565 66.3141C172.565 66.7755 172.93 67.1496 173.38 67.1496H203.451C203.901 67.1496 204.265 66.7755 204.265 66.3141C204.265 65.8526 203.901 65.4785 203.451 65.4785Z" fill="#072D4C"/>
<path d="M200.118 69.7852H176.713C176.263 69.7852 175.898 70.1593 175.898 70.6207C175.898 71.0821 176.263 71.4562 176.713 71.4562H200.118C200.568 71.4562 200.932 71.0821 200.932 70.6207C200.932 70.1593 200.568 69.7852 200.118 69.7852Z" fill="#072D4C"/>
<path d="M176.867 53.5259H200.317C202.504 53.5259 204.264 51.7547 204.264 49.5682V32.8698C204.264 30.6833 202.504 28.9121 200.317 28.9121H176.867C174.691 28.9121 172.92 30.6833 172.92 32.8698V49.5682C172.92 51.7547 174.691 53.5259 176.867 53.5259ZM199.388 44.1243V47.5567C199.388 48.0596 198.984 48.4642 198.481 48.4642H192.369C191.866 48.4642 191.462 48.0596 191.462 47.5567V44.1243C191.462 43.6214 191.866 43.2168 192.369 43.2168H198.481C198.984 43.2168 199.388 43.6214 199.388 44.1243ZM184.607 30.552H192.577V37.5269C192.577 38.0735 191.998 38.4018 191.528 38.1285L188.947 36.6194C188.729 36.4993 188.456 36.4993 188.237 36.6194L185.657 38.1285C185.186 38.4018 184.607 38.0735 184.607 37.5269V30.552ZM176.972 43.2269H184.365C184.818 43.2269 185.185 43.5937 185.185 44.0469C185.185 44.5001 184.818 44.8668 184.365 44.8668H176.972C176.519 44.8668 176.152 44.5001 176.152 44.0469C176.152 43.5937 176.519 43.2269 176.972 43.2269ZM176.972 47.0197H181.882C182.335 47.0197 182.702 47.387 182.702 47.8397C182.702 48.2923 182.335 48.6596 181.882 48.6596H176.972C176.519 48.6596 176.152 48.2923 176.152 47.8397C176.152 47.387 176.519 47.0197 176.972 47.0197Z" fill="#FFC5C5"/>
<path d="M52.3647 28.722C53.0264 28.722 53.563 28.186 53.563 27.5237V17.9751C53.563 15.0344 51.1705 12.6426 48.2305 12.6426H6.22408C3.28404 12.6426 0.891602 15.0344 0.891602 17.9751V27.5237C0.891602 28.186 1.42818 28.722 2.08986 28.722C4.56414 28.722 6.57745 30.7347 6.57745 33.2096C6.57745 35.6845 4.56414 37.6972 2.08986 37.6972C1.42818 37.6972 0.891602 38.2332 0.891602 38.8954V48.4441C0.891602 51.3847 3.28404 53.7766 6.22408 53.7766H48.2305C51.1705 53.7766 53.563 51.3847 53.563 48.4441V38.8954C53.563 38.2332 53.0264 37.6972 52.3647 37.6972C49.8898 37.6972 47.8765 35.6845 47.8765 33.2096C47.8765 30.7347 49.8898 28.722 52.3647 28.722ZM51.1664 39.9896V48.4441C51.1664 50.0625 49.8494 51.3801 48.2305 51.3801H43.1111V47.7806C43.1111 47.1184 42.5745 46.5824 41.9129 46.5824C41.2512 46.5824 40.7146 47.1184 40.7146 47.7806V51.3801H6.22408C4.60512 51.3801 3.28812 50.0625 3.28812 48.4441V39.9896C6.5149 39.4209 8.97396 36.5972 8.97396 33.2096C8.97396 29.822 6.5149 26.9983 3.28812 26.4296V17.9751C3.28812 16.3567 4.60512 15.0391 6.22408 15.0391L40.7146 15.0391V18.6385C40.7146 19.3008 41.2512 19.8368 41.9129 19.8368C42.5745 19.8368 43.1111 19.3008 43.1111 18.6385V15.0391H48.2305C49.8494 15.0391 51.1664 16.3567 51.1664 17.9751V26.4296C47.9391 26.9983 45.48 29.822 45.48 33.2096C45.48 36.5972 47.9391 39.4209 51.1664 39.9896Z" fill="#072D4C"/>
<path d="M41.689 23.957C41.0273 23.957 40.4907 24.493 40.4907 25.1553V29.953C40.4907 30.6153 41.0273 31.1512 41.689 31.1512C42.3507 31.1512 42.8872 30.6153 42.8872 29.953V25.1553C42.8872 24.493 42.3507 23.957 41.689 23.957Z" fill="#072D4C"/>
<path d="M41.689 35.2695C41.0273 35.2695 40.4907 35.8055 40.4907 36.4678V41.2655C40.4907 41.9278 41.0273 42.4637 41.689 42.4637C42.3507 42.4637 42.8872 41.9278 42.8872 41.2655V36.4678C42.8872 35.8055 42.3507 35.2695 41.689 35.2695Z" fill="#072D4C"/>
<path d="M27.8748 41.9643L29.9837 34.5846L32.6247 34.5846C32.9366 34.5846 33.2358 34.4607 33.4563 34.2402C33.6769 34.0196 33.8008 33.7205 33.8008 33.4086C33.8008 33.0966 33.6769 32.7975 33.4563 32.5769C33.2358 32.3564 32.9366 32.2325 32.6247 32.2325L29.9837 32.2325L27.8748 24.8528C27.8043 24.6071 27.6558 24.391 27.4517 24.2372C27.2476 24.0833 26.9989 24.0001 26.7433 24L23.2144 24C23.0599 23.9999 22.907 24.0303 22.7642 24.0894C22.6215 24.1485 22.4918 24.2351 22.3826 24.3443C22.2733 24.4535 22.1867 24.5832 22.1276 24.7259C22.0685 24.8686 22.0381 25.0216 22.0381 25.1761L22.0381 32.2325L17.0039 32.2325L16.0957 29.5082C16.0073 29.2434 15.8276 29.0186 15.5886 28.8741C15.3497 28.7296 15.0671 28.6748 14.7915 28.7196C14.5159 28.7643 14.2652 28.9057 14.0843 29.1183C13.9033 29.331 13.804 29.6011 13.804 29.8803L13.804 36.9368C13.804 37.216 13.9033 37.4861 14.0843 37.6988C14.2652 37.9114 14.5159 38.0528 14.7915 38.0975C15.0671 38.1423 15.3497 38.0875 15.5886 37.943C15.8276 37.7985 16.0073 37.5737 16.0957 37.3089L17.0039 34.5846L22.0381 34.5846L22.0381 41.641C22.0381 41.7955 22.0685 41.9485 22.1276 42.0912C22.1867 42.2339 22.2733 42.3636 22.3826 42.4728C22.4918 42.582 22.6215 42.6686 22.7642 42.7277C22.907 42.7868 23.0599 42.8172 23.2144 42.8171L26.7433 42.8171C26.9989 42.817 27.2475 42.7338 27.4517 42.58C27.6558 42.4261 27.8043 42.21 27.8748 41.9643Z" fill="#FFC5C5"/>
</svg>
