<svg width="215" height="83" viewBox="0 0 215 83" fill="none" xmlns="http://www.w3.org/2000/svg">
<path d="M73.9257 82.5814H145.442C150.753 82.5814 155.074 78.2606 155.074 72.9492C155.074 68.7289 155.074 29.294 155.074 22.7509C155.074 17.4399 150.753 13.1191 145.442 13.1191H73.9257C68.6142 13.1191 64.2935 17.4399 64.2935 22.7509V72.9492C64.2935 78.2606 68.6142 82.5814 73.9257 82.5814ZM66.3367 22.7507C66.3367 18.5666 69.7407 15.1621 73.9257 15.1621H145.442C149.627 15.1621 153.031 18.5666 153.031 22.7507V62.6171C153.031 66.8012 149.627 70.2057 145.442 70.2057H73.9257C69.7405 70.2057 66.3367 66.8012 66.3367 62.6171C66.3367 48.8138 66.3367 36.554 66.3367 22.7507ZM66.3367 68.5277C68.1009 70.7877 70.843 72.2489 73.9257 72.2489H145.442C148.525 72.2489 151.266 70.7875 153.031 68.5277V72.9492C153.031 77.1337 149.627 80.5382 145.442 80.5382H73.9257C69.7405 80.5382 66.3367 77.1337 66.3367 72.9492V68.5277Z" fill="#072D4C"/>
<path d="M150.05 9.45298C150.615 9.45298 151.072 8.99558 151.072 8.43149V1.53126C151.072 0.967168 150.615 0.509766 150.05 0.509766C149.486 0.509766 149.029 0.967168 149.029 1.53126V8.43149C149.029 8.99558 149.486 9.45298 150.05 9.45298Z" fill="#072D4C"/>
<path d="M158.214 12.2361L163.093 7.35725C163.492 6.95812 163.492 6.31176 163.093 5.91263C162.694 5.5135 162.048 5.5135 161.649 5.91263L156.769 10.7915C156.37 11.1906 156.37 11.837 156.769 12.2361C157.168 12.635 157.815 12.635 158.214 12.2361Z" fill="#072D4C"/>
<path d="M167.473 17.9336H160.573C160.009 17.9336 159.552 18.391 159.552 18.9551C159.552 19.5192 160.009 19.9766 160.573 19.9766H167.473C168.038 19.9766 168.494 19.5192 168.494 18.9551C168.495 18.391 168.038 17.9336 167.473 17.9336Z" fill="#072D4C"/>
<path d="M128.765 55.8598C128.578 55.8598 128.419 55.8038 128.289 55.6918C128.177 55.5611 128.121 55.4024 128.121 55.2158V48.5798L121.373 37.1838C121.317 37.0718 121.289 36.9504 121.289 36.8198C121.289 36.6704 121.345 36.5398 121.457 36.4278C121.569 36.3158 121.699 36.2598 121.849 36.2598H123.193C123.529 36.2598 123.771 36.4184 123.921 36.7358L129.465 45.8918L134.981 36.7358C135.167 36.4184 135.41 36.2598 135.709 36.2598H137.053C137.202 36.2598 137.333 36.3158 137.445 36.4278C137.575 36.5398 137.641 36.6704 137.641 36.8198C137.641 36.9131 137.603 37.0344 137.529 37.1838L130.781 48.5798V55.2158C130.781 55.4024 130.715 55.5611 130.585 55.6918C130.473 55.8038 130.314 55.8598 130.109 55.8598H128.765Z" fill="#072D4C"/>
<path d="M110.951 56.1398C108.543 56.1398 106.686 55.4958 105.379 54.2078C104.072 52.9011 103.419 50.9318 103.419 48.2998V36.9318C103.419 36.7264 103.475 36.5678 103.587 36.4558C103.699 36.3251 103.848 36.2598 104.035 36.2598H105.379C105.584 36.2598 105.743 36.3251 105.855 36.4558C105.986 36.5678 106.051 36.7264 106.051 36.9318V48.3558C106.051 50.1851 106.471 51.5478 107.311 52.4438C108.17 53.3398 109.383 53.7878 110.951 53.7878C112.5 53.7878 113.695 53.3398 114.535 52.4438C115.394 51.5291 115.823 50.1664 115.823 48.3558V36.9318C115.823 36.7264 115.879 36.5678 115.991 36.4558C116.103 36.3251 116.262 36.2598 116.467 36.2598H117.811C117.998 36.2598 118.147 36.3251 118.259 36.4558C118.39 36.5678 118.455 36.7264 118.455 36.9318V48.2998C118.455 50.9318 117.802 52.9011 116.495 54.2078C115.207 55.4958 113.359 56.1398 110.951 56.1398Z" fill="#072D4C"/>
<path d="M85.8352 55.8598C85.6486 55.8598 85.4992 55.8038 85.3872 55.6918C85.2752 55.5611 85.2192 55.4024 85.2192 55.2158V36.9318C85.2192 36.7264 85.2752 36.5678 85.3872 36.4558C85.4992 36.3251 85.6486 36.2598 85.8352 36.2598H93.4792C95.4579 36.2598 96.9512 36.7358 97.9592 37.6878C98.9672 38.6398 99.4712 39.8811 99.4712 41.4118C99.4712 42.4571 99.2286 43.3344 98.7432 44.0438C98.2579 44.7344 97.6886 45.2384 97.0352 45.5558C97.8379 45.9478 98.5099 46.5544 99.0512 47.3758C99.5926 48.1971 99.8632 49.1398 99.8632 50.2038C99.8632 51.2491 99.6206 52.2011 99.1352 53.0598C98.6686 53.9184 97.9686 54.5998 97.0352 55.1038C96.1019 55.6078 94.9912 55.8598 93.7032 55.8598H85.8352ZM93.0592 44.5758C94.2726 44.5758 95.1966 44.3051 95.8312 43.7638C96.4659 43.2038 96.7832 42.4291 96.7832 41.4398C96.7832 40.4691 96.4659 39.7318 95.8312 39.2278C95.2152 38.7238 94.2912 38.4718 93.0592 38.4718H87.8512V44.5758H93.0592ZM93.3392 53.6478C94.5339 53.6478 95.4672 53.3304 96.1392 52.6958C96.8299 52.0424 97.1752 51.2118 97.1752 50.2038C97.1752 49.1771 96.8299 48.3464 96.1392 47.7118C95.4672 47.0771 94.5339 46.7598 93.3392 46.7598H87.8512V53.6478H93.3392Z" fill="#072D4C"/>
<g clip-path="url(#clip0_587_16272)">
<path d="M204.265 25.1113H172.566C170.321 25.1113 168.495 26.9856 168.495 29.289V78.2213C168.495 78.4975 168.628 78.7558 168.85 78.9116L173.625 82.2538C173.902 82.4471 174.266 82.4471 174.543 82.2538L178.858 79.2327L183.175 82.2538C183.451 82.4475 183.815 82.4467 184.092 82.2538L188.407 79.2327L192.722 82.2538C192.86 82.3505 193.02 82.399 193.181 82.399C193.341 82.399 193.501 82.3505 193.64 82.2538L197.959 79.2323L202.282 82.2542C202.557 82.4476 202.923 82.4476 203.198 82.2542L207.979 78.912C208.202 78.7562 208.336 78.4979 208.336 78.2213V29.289C208.336 26.9856 206.509 25.1113 204.265 25.1113ZM206.707 77.7795L202.74 80.5525L198.417 77.5306C198.279 77.4339 198.119 77.3858 197.959 77.3858C197.799 77.3858 197.639 77.4343 197.5 77.531L193.181 80.5521L188.865 77.531C188.589 77.3377 188.225 77.3377 187.948 77.531L183.633 80.5521L179.317 77.531C179.04 77.3377 178.676 77.3377 178.4 77.531L174.084 80.5521L170.123 77.7799V29.289C170.123 27.9068 171.219 26.7824 172.566 26.7824H204.265C205.612 26.7824 206.707 27.9068 206.707 29.289V77.7795Z" fill="#072D4C"/>
<path d="M203.477 57.0312H173.711C173.261 57.0312 172.896 57.4054 172.896 57.8668V62.5144C172.896 62.9759 173.261 63.35 173.711 63.35H203.477C203.927 63.35 204.291 62.9759 204.291 62.5144V57.8668C204.291 57.4054 203.927 57.0312 203.477 57.0312ZM202.662 61.6789H174.525V58.7023H202.662V61.6789Z" fill="#072D4C"/>
<path d="M203.451 65.9883H173.38C172.93 65.9883 172.565 66.3624 172.565 66.8238C172.565 67.2852 172.93 67.6594 173.38 67.6594H203.451C203.901 67.6594 204.265 67.2852 204.265 66.8238C204.265 66.3624 203.901 65.9883 203.451 65.9883Z" fill="#072D4C"/>
<path d="M200.118 70.2949H176.713C176.263 70.2949 175.898 70.669 175.898 71.1305C175.898 71.5919 176.263 71.966 176.713 71.966H200.118C200.568 71.966 200.932 71.5919 200.932 71.1305C200.932 70.669 200.568 70.2949 200.118 70.2949Z" fill="#072D4C"/>
<path d="M176.867 54.0357H200.317C202.504 54.0357 204.264 52.2645 204.264 50.0779V33.3796C204.264 31.1931 202.504 29.4219 200.317 29.4219H176.867C174.691 29.4219 172.92 31.1931 172.92 33.3796V50.0779C172.92 52.2645 174.691 54.0357 176.867 54.0357ZM199.388 44.6341V48.0665C199.388 48.5694 198.984 48.974 198.481 48.974H192.369C191.866 48.974 191.462 48.5694 191.462 48.0665V44.6341C191.462 44.1312 191.866 43.7266 192.369 43.7266H198.481C198.984 43.7266 199.388 44.1312 199.388 44.6341ZM184.607 31.0618H192.577V38.0366C192.577 38.5833 191.998 38.9116 191.528 38.6382L188.947 37.1291C188.729 37.009 188.456 37.009 188.237 37.1291L185.657 38.6382C185.186 38.9116 184.607 38.5833 184.607 38.0366V31.0618ZM176.972 43.7367H184.365C184.818 43.7367 185.185 44.1034 185.185 44.5567C185.185 45.0099 184.818 45.3766 184.365 45.3766H176.972C176.519 45.3766 176.152 45.0099 176.152 44.5567C176.152 44.1034 176.519 43.7367 176.972 43.7367ZM176.972 47.5295H181.882C182.335 47.5295 182.702 47.8968 182.702 48.3494C182.702 48.8021 182.335 49.1694 181.882 49.1694H176.972C176.519 49.1694 176.152 48.8021 176.152 48.3494C176.152 47.8968 176.519 47.5295 176.972 47.5295Z" fill="#FFC5C5"/>
</g>
<path d="M23.8754 24.8595C23.6449 24.8632 23.4201 24.931 23.2262 25.0555C23.0323 25.1799 22.8772 25.356 22.7782 25.5638L20.6577 30.0109L15.7826 30.7852C15.5542 30.821 15.3405 30.9199 15.1656 31.0708C14.9907 31.2218 14.8618 31.4186 14.7933 31.639C14.7248 31.8594 14.7196 32.0945 14.7782 32.3177C14.8369 32.5409 14.957 32.7433 15.1251 32.9018L18.7085 36.2906L17.942 41.158C17.906 41.3857 17.9346 41.6188 18.0245 41.8311C18.1145 42.0434 18.2621 42.2263 18.4508 42.3591C18.6395 42.4919 18.8617 42.5693 19.0922 42.5826C19.3227 42.5959 19.5523 42.5444 19.7551 42.4342L24.0894 40.0802L28.4899 42.3135C28.6957 42.4186 28.9269 42.4639 29.1572 42.4444C29.3876 42.4248 29.6078 42.3413 29.793 42.2031C29.9781 42.065 30.1208 41.8778 30.2047 41.6628C30.2887 41.4478 30.3106 41.2136 30.268 40.9868L29.3653 36.1428L32.8475 32.6528C33.0097 32.4898 33.1231 32.2849 33.175 32.0611C33.2269 31.8373 33.2152 31.6034 33.1412 31.3859C33.0672 31.1684 32.9339 30.9758 32.7562 30.8298C32.5785 30.6838 32.3636 30.5902 32.1355 30.5595L27.2409 29.9175L24.996 25.5326C24.8909 25.3271 24.7302 25.1551 24.5321 25.0361C24.334 24.9171 24.1065 24.8559 23.8754 24.8595Z" fill="#FFC5C5"/>
<path d="M52.3647 29.2318C53.0264 29.2318 53.563 28.6958 53.563 28.0335V18.4848C53.563 15.5442 51.1705 13.1523 48.2305 13.1523H6.22408C3.28404 13.1523 0.891602 15.5442 0.891602 18.4848V28.0335C0.891602 28.6958 1.42818 29.2318 2.08986 29.2318C4.56414 29.2318 6.57745 31.2445 6.57745 33.7193C6.57745 36.1942 4.56414 38.2069 2.08986 38.2069C1.42818 38.2069 0.891602 38.7429 0.891602 39.4052V48.9539C0.891602 51.8945 3.28404 54.2864 6.22408 54.2864H48.2305C51.1705 54.2864 53.563 51.8945 53.563 48.9539V39.4052C53.563 38.7429 53.0264 38.2069 52.3647 38.2069C49.8898 38.2069 47.8765 36.1942 47.8765 33.7193C47.8765 31.2445 49.8898 29.2318 52.3647 29.2318ZM51.1664 40.4993V48.9539C51.1664 50.5722 49.8494 51.8898 48.2305 51.8898H43.1111V48.2904C43.1111 47.6281 42.5745 47.0921 41.9129 47.0921C41.2512 47.0921 40.7146 47.6281 40.7146 48.2904V51.8898H6.22408C4.60512 51.8898 3.28812 50.5722 3.28812 48.9539V40.4993C6.5149 39.9306 8.97396 37.1069 8.97396 33.7193C8.97396 30.3318 6.5149 27.5081 3.28812 26.9394V18.4848C3.28812 16.8665 4.60512 15.5489 6.22408 15.5489L40.7146 15.5489V19.1483C40.7146 19.8106 41.2512 20.3466 41.9129 20.3466C42.5745 20.3466 43.1111 19.8106 43.1111 19.1483V15.5489H48.2305C49.8494 15.5489 51.1664 16.8665 51.1664 18.4848V26.9394C47.9391 27.5081 45.48 30.3318 45.48 33.7193C45.48 37.1069 47.9391 39.9306 51.1664 40.4993Z" fill="#072D4C"/>
<path d="M41.689 24.4668C41.0273 24.4668 40.4907 25.0028 40.4907 25.6651V30.4628C40.4907 31.125 41.0273 31.661 41.689 31.661C42.3507 31.661 42.8872 31.125 42.8872 30.4628V25.6651C42.8872 25.0028 42.3507 24.4668 41.689 24.4668Z" fill="#072D4C"/>
<path d="M41.689 35.7793C41.0273 35.7793 40.4907 36.3153 40.4907 36.9776V41.7753C40.4907 42.4375 41.0273 42.9735 41.689 42.9735C42.3507 42.9735 42.8872 42.4375 42.8872 41.7753V36.9776C42.8872 36.3153 42.3507 35.7793 41.689 35.7793Z" fill="#072D4C"/>
<defs>
<clipPath id="clip0_587_16272">
<rect width="52.1031" height="58.9587" fill="white" transform="translate(162.364 23.873)"/>
</clipPath>
</defs>
</svg>
