<svg width="13" height="12" viewBox="0 0 13 12" fill="none" xmlns="http://www.w3.org/2000/svg">
<path d="M3.42953 0.0693359C2.84898 0.0693359 2.37492 0.573235 2.37492 1.18223V1.46021H1.29593C0.657893 1.46021 0.136719 2.00537 0.136719 2.66839V9.93808C0.136719 10.6031 0.657893 11.1463 1.29593 11.1463H10.9766C11.6127 11.1463 12.1367 10.6031 12.1367 9.93808V2.66839C12.1367 2.00537 11.6127 1.46021 10.9766 1.46021H9.89851V1.18223C9.89851 0.573235 9.42446 0.0693359 8.84297 0.0693359C8.25959 0.0693359 7.78554 0.573235 7.78554 1.18223V1.46021H4.48696V1.18223C4.48696 0.573235 4.0129 0.0693359 3.42953 0.0693359ZM3.42953 0.693069C3.68682 0.693069 3.8885 0.903273 3.8885 1.18223V2.30987C3.8885 2.58785 3.68682 2.79608 3.42953 2.79608C3.17318 2.79608 2.97338 2.58785 2.97338 2.30987V1.18223C2.97338 0.903273 3.17318 0.693069 3.42953 0.693069ZM8.84297 0.693069C9.10026 0.693069 9.30006 0.903273 9.30006 1.18223V2.30987C9.30006 2.58785 9.10026 2.79608 8.84297 2.79608C8.58662 2.79608 8.384 2.58785 8.384 2.30987V1.18223C8.384 0.903273 8.58662 0.693069 8.84297 0.693069ZM1.29593 2.08395H2.37492V2.30987C2.37492 2.91788 2.84898 3.42178 3.42953 3.42178C4.0129 3.42178 4.48696 2.91788 4.48696 2.30987V2.08395H7.78554V2.30987C7.78554 2.91788 8.25959 3.42178 8.84297 3.42178C9.42446 3.42178 9.89851 2.91788 9.89851 2.30987V2.08395H10.9766C11.2932 2.08395 11.5383 2.3413 11.5383 2.66839V3.84022H0.735175V2.66839C0.735175 2.3413 0.979269 2.08395 1.29593 2.08395ZM0.735175 4.46396H11.5383V9.93808C11.5383 10.2681 11.2932 10.5225 10.9766 10.5225H1.29593C0.979269 10.5225 0.735175 10.2681 0.735175 9.93808V4.46396Z" fill="#072D4C"/>
</svg>
