<svg width="36" height="33" viewBox="0 0 36 33" fill="none" xmlns="http://www.w3.org/2000/svg">
<path d="M16.9343 3.91172C17.3124 3.21306 18.315 3.21305 18.6931 3.91172L32.782 29.942C33.1426 30.6083 32.6602 31.418 31.9026 31.418H3.72482C2.9672 31.418 2.48474 30.6083 2.84538 29.942L16.9343 3.91172Z" stroke="white" stroke-width="2"/>
<path d="M17.1544 22.8717C17.0478 22.8717 16.9571 22.8344 16.8824 22.7597C16.8078 22.685 16.7704 22.5944 16.7704 22.4877V15.1757C16.7704 15.0584 16.8078 14.9677 16.8824 14.9037C16.9571 14.829 17.0478 14.7917 17.1544 14.7917H18.4824C18.5891 14.7917 18.6798 14.829 18.7544 14.9037C18.8291 14.9784 18.8664 15.069 18.8664 15.1757V22.4877C18.8664 22.5944 18.8291 22.685 18.7544 22.7597C18.6798 22.8344 18.5891 22.8717 18.4824 22.8717H17.1544ZM17.0584 25.9917C16.9518 25.9917 16.8611 25.9544 16.7864 25.8797C16.7118 25.805 16.6744 25.7144 16.6744 25.6077V24.0877C16.6744 23.9704 16.7118 23.8797 16.7864 23.8157C16.8611 23.741 16.9518 23.7037 17.0584 23.7037H18.5624C18.6798 23.7037 18.7758 23.741 18.8504 23.8157C18.9251 23.8904 18.9624 23.981 18.9624 24.0877V25.6077C18.9624 25.7144 18.9251 25.805 18.8504 25.8797C18.7758 25.9544 18.6798 25.9917 18.5624 25.9917H17.0584Z" fill="#FFC5C5"/>
</svg>
