<svg width="34" height="43" viewBox="0 0 34 43" fill="none" xmlns="http://www.w3.org/2000/svg">
<circle cx="17.0023" cy="9.23768" r="9.22499" fill="#FFC5C5"/>
<mask id="path-2-outside-1_584_8757" maskUnits="userSpaceOnUse" x="-0.171875" y="17.4629" width="34" height="25" fill="black">
<rect fill="white" x="-0.171875" y="17.4629" width="34" height="25"/>
<path d="M32.7521 26.1689L25.4701 18.8869C24.9059 18.3226 23.9874 18.3226 23.4232 18.8869L21.3358 20.9743C21.0634 21.2466 20.9126 21.6106 20.9126 21.9981C20.9126 22.3856 21.0626 22.7488 21.3358 23.022L21.5255 23.2116L20.988 23.7491L18.1378 23.8131C18.1265 23.8131 18.1159 23.814 18.1046 23.8148C17.2785 23.8902 16.4614 24.1228 15.975 24.4041C15.958 24.3984 15.9402 24.3936 15.9223 24.3895L13.051 23.784L12.4779 23.2108L12.6676 23.0211C12.94 22.7488 13.0907 22.3848 13.0907 21.9973C13.0907 21.6098 12.9408 21.2466 12.6676 20.9735L10.5802 18.886C10.016 18.3218 9.09751 18.3218 8.5333 18.886L1.25128 26.1681C0.978905 26.4404 0.828125 26.8044 0.828125 27.1919C0.828125 27.5794 0.978094 27.9426 1.25128 28.2157L3.33869 30.3032C3.62079 30.5853 3.99126 30.7263 4.36253 30.7263C4.733 30.7263 5.10427 30.5853 5.38638 30.3032L5.77062 29.9189L6.41103 30.5593L7.84101 32.7416L7.2768 33.3058C6.66476 33.9178 6.66476 34.9141 7.2768 35.5261L7.72346 35.9728C8.01043 36.2598 8.39144 36.4211 8.79838 36.43C8.8073 36.8207 8.95889 37.2082 9.25558 37.5057L9.70225 37.9524C9.99003 38.2402 10.3702 38.4007 10.778 38.4096C10.7869 38.8165 10.9474 39.1975 11.2352 39.4853L11.6818 39.932C11.9875 40.2376 12.3895 40.3908 12.7916 40.3908C13.0016 40.3908 13.2107 40.3479 13.4069 40.2652C13.4823 40.4986 13.6104 40.7118 13.7887 40.8894L14.2354 41.336C14.5313 41.6319 14.9252 41.7949 15.3451 41.7949C15.6613 41.7949 15.962 41.7024 16.2174 41.5314L16.2401 41.5541C16.5465 41.8597 16.9478 42.0129 17.3499 42.0129C17.7519 42.0129 18.154 41.8597 18.4596 41.5541L18.9063 41.1074C19.0871 40.9266 19.2135 40.711 19.2873 40.4824C19.4835 40.5667 19.6934 40.6097 19.9026 40.6097C20.3047 40.6097 20.7067 40.4557 21.0132 40.1492L21.4598 39.7026C21.7573 39.4051 21.9089 39.0176 21.917 38.6269C22.324 38.6179 22.7042 38.4574 22.992 38.1696L23.4386 37.723C23.7264 37.4352 23.8869 37.055 23.8958 36.6473C24.3028 36.6383 24.6838 36.4778 24.9715 36.1901L25.4182 35.7434C25.7149 35.4467 25.8778 35.0511 25.877 34.6296C25.8762 34.2251 25.7238 33.8465 25.4482 33.5563L27.5851 30.565L28.232 29.9181L28.6162 30.3023C28.8983 30.5845 29.2688 30.7255 29.64 30.7255C30.0105 30.7255 30.3818 30.5845 30.6639 30.3023L32.7513 28.2149C33.0237 27.9426 33.1745 27.5786 33.1745 27.1911C33.1753 26.8052 33.0253 26.4421 32.7521 26.1689ZM4.02693 29.6157L1.93952 27.5283C1.85035 27.4392 1.80171 27.32 1.80171 27.1927C1.80171 27.0654 1.85035 26.9463 1.93952 26.8571L9.22154 19.5751C9.31395 19.4827 9.43555 19.4365 9.55714 19.4365C9.67874 19.4365 9.80034 19.4827 9.89275 19.5751L11.9802 21.6625C12.0693 21.7517 12.118 21.8708 12.118 21.9981C12.118 22.1254 12.0693 22.2445 11.9802 22.3337L4.69814 29.6157C4.51331 29.8006 4.21175 29.8006 4.02693 29.6157ZM7.96423 34.8387C7.73157 34.6061 7.73157 34.2275 7.96423 33.994L9.87978 32.0785C9.99165 31.9666 10.1416 31.905 10.3021 31.905C10.4626 31.905 10.6126 31.9666 10.7245 32.0785L11.1711 32.5251C11.4038 32.7578 11.4038 33.1364 11.1711 33.3698L9.25558 35.2854C9.14371 35.3972 8.99374 35.4589 8.83324 35.4589C8.67273 35.4589 8.52276 35.3972 8.41089 35.2854L7.96423 34.8387ZM9.94382 36.8175C9.83195 36.7056 9.77034 36.5557 9.77034 36.3951C9.77034 36.2346 9.83195 36.0847 9.94382 35.9728L11.8594 34.0572C11.9712 33.9454 12.1212 33.8838 12.2817 33.8838C12.4422 33.8838 12.5922 33.9454 12.7041 34.0572L13.1507 34.5039C13.3834 34.7366 13.3834 35.1151 13.1507 35.3486L11.2352 37.2642C11.1233 37.376 10.9733 37.4376 10.8128 37.4376C10.6523 37.4376 10.5024 37.376 10.3905 37.2642L9.94382 36.8175ZM12.3693 39.2429L11.9226 38.7963C11.8107 38.6844 11.7491 38.5344 11.7491 38.3739C11.7491 38.2134 11.8107 38.0635 11.9226 37.9516L13.8382 36.036C13.9549 35.9193 14.1073 35.8617 14.2605 35.8617C14.4137 35.8617 14.5661 35.9201 14.6828 36.036L15.1295 36.4827C15.2414 36.5946 15.303 36.7445 15.303 36.905C15.303 37.0655 15.2414 37.2155 15.1295 37.3274L13.7887 38.6682L13.214 39.2429C12.9813 39.4756 12.6019 39.4764 12.3693 39.2429ZM15.3451 40.8213C15.1846 40.8213 15.0347 40.7597 14.9228 40.6478L14.4761 40.2011C14.3643 40.0893 14.3027 39.9393 14.3027 39.7788C14.3027 39.6183 14.3643 39.4683 14.4761 39.3564L15.8169 38.0156C15.9337 37.8989 16.0861 37.8413 16.2393 37.8413C16.3925 37.8413 16.5449 37.8997 16.6616 38.0156L17.1083 38.4623C17.2202 38.5742 17.2818 38.7241 17.2818 38.8846C17.2818 39.0451 17.2202 39.1951 17.1083 39.307L15.7675 40.6478C15.6556 40.7597 15.5057 40.8213 15.3451 40.8213ZM18.2197 40.4192L17.773 40.8659C17.5404 41.0985 17.161 41.0985 16.9283 40.8659L16.9267 40.8642L17.7957 39.9952C17.9424 39.8485 18.0567 39.6766 18.1346 39.4894L18.2197 39.5745C18.4523 39.8071 18.4523 40.1857 18.2197 40.4192ZM24.7316 35.056L24.2849 35.5026C24.1731 35.6145 24.0231 35.6761 23.8626 35.6761C23.7021 35.6761 23.5529 35.6145 23.441 35.5026L20.0153 32.0768C19.8256 31.8872 19.5175 31.8872 19.327 32.0768C19.1373 32.2665 19.1373 32.5746 19.327 32.7643L20.8373 34.2745L22.7528 36.1901C22.8647 36.3019 22.9263 36.4519 22.9263 36.6124C22.9263 36.7729 22.8647 36.9229 22.7528 37.0347L22.3061 37.4814C22.1943 37.5933 22.0443 37.6549 21.8838 37.6549C21.7233 37.6549 21.5733 37.5933 21.4615 37.4814L19.5459 35.5659L17.9846 34.0046C17.7949 33.8149 17.4869 33.8149 17.2964 34.0046C17.1067 34.1943 17.1067 34.5023 17.2964 34.692L20.7732 38.1688C21.0059 38.4015 21.0059 38.7801 20.7732 39.0135L20.3266 39.4602C20.1061 39.6799 19.7405 39.6904 19.5078 39.4837C19.4705 39.4472 19.2954 39.2721 19.2662 39.2438L19.263 39.2405C19.2184 39.1967 19.1681 39.1635 19.1138 39.14C19.0555 39.05 18.9866 38.9641 18.9079 38.8846L17.9919 37.9686C17.9676 37.9443 17.9408 37.9232 17.9133 37.9046C17.8768 37.8592 17.8379 37.8146 17.7965 37.7724L17.3499 37.3258C17.0524 37.0283 16.6649 36.8767 16.2741 36.8686C16.2652 36.4616 16.1047 36.0814 15.8177 35.7937L15.3711 35.347C15.0736 35.0495 14.6861 34.8979 14.2954 34.8898C14.2864 34.4828 14.1259 34.1026 13.839 33.8149L13.3923 33.3682C13.1053 33.0812 12.7243 32.9199 12.3174 32.911C12.3085 32.5203 12.1569 32.1328 11.8602 31.8353L11.4135 31.3886C11.1176 31.0927 10.7237 30.9298 10.3037 30.9298C9.88383 30.9298 9.48905 31.0927 9.19397 31.3886L8.54546 32.0371L7.19898 29.9821C7.18033 29.9546 7.15926 29.9286 7.13575 29.9043L6.46048 29.2291L11.7921 23.8974L12.4674 24.5727C12.5338 24.6392 12.6189 24.6854 12.7105 24.7048L15.0922 25.2066L13.4377 26.8612C13.1078 27.1911 12.9254 27.6321 12.9254 28.1014C12.9254 28.5708 13.107 29.011 13.4377 29.3417L13.9606 29.8646C14.2905 30.1945 14.7315 30.3769 15.2008 30.3769C15.6702 30.3769 16.1104 30.1953 16.4411 29.8646L17.2874 29.0183C18.0227 28.283 18.9914 28.5027 20.1677 29.6717L24.7348 34.2105C24.8459 34.3207 24.9075 34.4699 24.9075 34.6296C24.9059 34.7933 24.8443 34.9441 24.7316 35.056ZM26.8701 29.9068C26.8514 29.9254 26.8336 29.9465 26.8182 29.9676L24.7519 32.8599L20.851 28.9834C18.6307 26.7769 17.1367 27.7926 16.5968 28.3317L15.7505 29.178C15.6037 29.3247 15.4076 29.405 15.1984 29.405C14.9893 29.405 14.7931 29.3239 14.6464 29.178L14.1235 28.6551C13.9768 28.5084 13.8965 28.3122 13.8965 28.1031C13.8965 27.8939 13.9776 27.6977 14.1235 27.551L16.3641 25.3128C16.4873 25.1961 17.1829 24.8799 18.1775 24.7859L21.2053 24.7178C21.3301 24.7154 21.4501 24.6643 21.5385 24.5751L22.2137 23.8999L27.5453 29.2315L26.8701 29.9068ZM32.0647 27.5283L29.9773 29.6157C29.7924 29.8006 29.4909 29.8006 29.3061 29.6157L22.024 22.3337C21.9349 22.2445 21.8862 22.1254 21.8862 21.9981C21.8862 21.8708 21.9349 21.7517 22.024 21.6625L24.1115 19.5751C24.2963 19.3903 24.5978 19.3903 24.7827 19.5751L32.0647 26.8571C32.1539 26.9463 32.2025 27.0654 32.2025 27.1927C32.2025 27.32 32.1539 27.4392 32.0647 27.5283ZM4.72003 26.8377C4.90972 27.0273 4.90972 27.3354 4.72003 27.5259L4.41117 27.8347C4.31633 27.9296 4.19149 27.9774 4.06746 27.9774C3.94262 27.9774 3.81859 27.9296 3.72375 27.8347C3.53406 27.6451 3.53406 27.337 3.72375 27.1465L4.0326 26.8377C4.22229 26.648 4.53034 26.648 4.72003 26.8377ZM30.3623 27.1473C30.552 27.337 30.552 27.6451 30.3623 27.8347C30.2675 27.9296 30.1426 27.9774 30.0186 27.9774C29.8946 27.9774 29.7697 27.9296 29.6749 27.8347L29.366 27.5259C29.1764 27.3362 29.1764 27.0282 29.366 26.8385C29.5557 26.6488 29.8638 26.6488 30.0543 26.8385L30.3623 27.1473Z"/>
</mask>
<path d="M32.7521 26.1689L25.4701 18.8869C24.9059 18.3226 23.9874 18.3226 23.4232 18.8869L21.3358 20.9743C21.0634 21.2466 20.9126 21.6106 20.9126 21.9981C20.9126 22.3856 21.0626 22.7488 21.3358 23.022L21.5255 23.2116L20.988 23.7491L18.1378 23.8131C18.1265 23.8131 18.1159 23.814 18.1046 23.8148C17.2785 23.8902 16.4614 24.1228 15.975 24.4041C15.958 24.3984 15.9402 24.3936 15.9223 24.3895L13.051 23.784L12.4779 23.2108L12.6676 23.0211C12.94 22.7488 13.0907 22.3848 13.0907 21.9973C13.0907 21.6098 12.9408 21.2466 12.6676 20.9735L10.5802 18.886C10.016 18.3218 9.09751 18.3218 8.5333 18.886L1.25128 26.1681C0.978905 26.4404 0.828125 26.8044 0.828125 27.1919C0.828125 27.5794 0.978094 27.9426 1.25128 28.2157L3.33869 30.3032C3.62079 30.5853 3.99126 30.7263 4.36253 30.7263C4.733 30.7263 5.10427 30.5853 5.38638 30.3032L5.77062 29.9189L6.41103 30.5593L7.84101 32.7416L7.2768 33.3058C6.66476 33.9178 6.66476 34.9141 7.2768 35.5261L7.72346 35.9728C8.01043 36.2598 8.39144 36.4211 8.79838 36.43C8.8073 36.8207 8.95889 37.2082 9.25558 37.5057L9.70225 37.9524C9.99003 38.2402 10.3702 38.4007 10.778 38.4096C10.7869 38.8165 10.9474 39.1975 11.2352 39.4853L11.6818 39.932C11.9875 40.2376 12.3895 40.3908 12.7916 40.3908C13.0016 40.3908 13.2107 40.3479 13.4069 40.2652C13.4823 40.4986 13.6104 40.7118 13.7887 40.8894L14.2354 41.336C14.5313 41.6319 14.9252 41.7949 15.3451 41.7949C15.6613 41.7949 15.962 41.7024 16.2174 41.5314L16.2401 41.5541C16.5465 41.8597 16.9478 42.0129 17.3499 42.0129C17.7519 42.0129 18.154 41.8597 18.4596 41.5541L18.9063 41.1074C19.0871 40.9266 19.2135 40.711 19.2873 40.4824C19.4835 40.5667 19.6934 40.6097 19.9026 40.6097C20.3047 40.6097 20.7067 40.4557 21.0132 40.1492L21.4598 39.7026C21.7573 39.4051 21.9089 39.0176 21.917 38.6269C22.324 38.6179 22.7042 38.4574 22.992 38.1696L23.4386 37.723C23.7264 37.4352 23.8869 37.055 23.8958 36.6473C24.3028 36.6383 24.6838 36.4778 24.9715 36.1901L25.4182 35.7434C25.7149 35.4467 25.8778 35.0511 25.877 34.6296C25.8762 34.2251 25.7238 33.8465 25.4482 33.5563L27.5851 30.565L28.232 29.9181L28.6162 30.3023C28.8983 30.5845 29.2688 30.7255 29.64 30.7255C30.0105 30.7255 30.3818 30.5845 30.6639 30.3023L32.7513 28.2149C33.0237 27.9426 33.1745 27.5786 33.1745 27.1911C33.1753 26.8052 33.0253 26.4421 32.7521 26.1689ZM4.02693 29.6157L1.93952 27.5283C1.85035 27.4392 1.80171 27.32 1.80171 27.1927C1.80171 27.0654 1.85035 26.9463 1.93952 26.8571L9.22154 19.5751C9.31395 19.4827 9.43555 19.4365 9.55714 19.4365C9.67874 19.4365 9.80034 19.4827 9.89275 19.5751L11.9802 21.6625C12.0693 21.7517 12.118 21.8708 12.118 21.9981C12.118 22.1254 12.0693 22.2445 11.9802 22.3337L4.69814 29.6157C4.51331 29.8006 4.21175 29.8006 4.02693 29.6157ZM7.96423 34.8387C7.73157 34.6061 7.73157 34.2275 7.96423 33.994L9.87978 32.0785C9.99165 31.9666 10.1416 31.905 10.3021 31.905C10.4626 31.905 10.6126 31.9666 10.7245 32.0785L11.1711 32.5251C11.4038 32.7578 11.4038 33.1364 11.1711 33.3698L9.25558 35.2854C9.14371 35.3972 8.99374 35.4589 8.83324 35.4589C8.67273 35.4589 8.52276 35.3972 8.41089 35.2854L7.96423 34.8387ZM9.94382 36.8175C9.83195 36.7056 9.77034 36.5557 9.77034 36.3951C9.77034 36.2346 9.83195 36.0847 9.94382 35.9728L11.8594 34.0572C11.9712 33.9454 12.1212 33.8838 12.2817 33.8838C12.4422 33.8838 12.5922 33.9454 12.7041 34.0572L13.1507 34.5039C13.3834 34.7366 13.3834 35.1151 13.1507 35.3486L11.2352 37.2642C11.1233 37.376 10.9733 37.4376 10.8128 37.4376C10.6523 37.4376 10.5024 37.376 10.3905 37.2642L9.94382 36.8175ZM12.3693 39.2429L11.9226 38.7963C11.8107 38.6844 11.7491 38.5344 11.7491 38.3739C11.7491 38.2134 11.8107 38.0635 11.9226 37.9516L13.8382 36.036C13.9549 35.9193 14.1073 35.8617 14.2605 35.8617C14.4137 35.8617 14.5661 35.9201 14.6828 36.036L15.1295 36.4827C15.2414 36.5946 15.303 36.7445 15.303 36.905C15.303 37.0655 15.2414 37.2155 15.1295 37.3274L13.7887 38.6682L13.214 39.2429C12.9813 39.4756 12.6019 39.4764 12.3693 39.2429ZM15.3451 40.8213C15.1846 40.8213 15.0347 40.7597 14.9228 40.6478L14.4761 40.2011C14.3643 40.0893 14.3027 39.9393 14.3027 39.7788C14.3027 39.6183 14.3643 39.4683 14.4761 39.3564L15.8169 38.0156C15.9337 37.8989 16.0861 37.8413 16.2393 37.8413C16.3925 37.8413 16.5449 37.8997 16.6616 38.0156L17.1083 38.4623C17.2202 38.5742 17.2818 38.7241 17.2818 38.8846C17.2818 39.0451 17.2202 39.1951 17.1083 39.307L15.7675 40.6478C15.6556 40.7597 15.5057 40.8213 15.3451 40.8213ZM18.2197 40.4192L17.773 40.8659C17.5404 41.0985 17.161 41.0985 16.9283 40.8659L16.9267 40.8642L17.7957 39.9952C17.9424 39.8485 18.0567 39.6766 18.1346 39.4894L18.2197 39.5745C18.4523 39.8071 18.4523 40.1857 18.2197 40.4192ZM24.7316 35.056L24.2849 35.5026C24.1731 35.6145 24.0231 35.6761 23.8626 35.6761C23.7021 35.6761 23.5529 35.6145 23.441 35.5026L20.0153 32.0768C19.8256 31.8872 19.5175 31.8872 19.327 32.0768C19.1373 32.2665 19.1373 32.5746 19.327 32.7643L20.8373 34.2745L22.7528 36.1901C22.8647 36.3019 22.9263 36.4519 22.9263 36.6124C22.9263 36.7729 22.8647 36.9229 22.7528 37.0347L22.3061 37.4814C22.1943 37.5933 22.0443 37.6549 21.8838 37.6549C21.7233 37.6549 21.5733 37.5933 21.4615 37.4814L19.5459 35.5659L17.9846 34.0046C17.7949 33.8149 17.4869 33.8149 17.2964 34.0046C17.1067 34.1943 17.1067 34.5023 17.2964 34.692L20.7732 38.1688C21.0059 38.4015 21.0059 38.7801 20.7732 39.0135L20.3266 39.4602C20.1061 39.6799 19.7405 39.6904 19.5078 39.4837C19.4705 39.4472 19.2954 39.2721 19.2662 39.2438L19.263 39.2405C19.2184 39.1967 19.1681 39.1635 19.1138 39.14C19.0555 39.05 18.9866 38.9641 18.9079 38.8846L17.9919 37.9686C17.9676 37.9443 17.9408 37.9232 17.9133 37.9046C17.8768 37.8592 17.8379 37.8146 17.7965 37.7724L17.3499 37.3258C17.0524 37.0283 16.6649 36.8767 16.2741 36.8686C16.2652 36.4616 16.1047 36.0814 15.8177 35.7937L15.3711 35.347C15.0736 35.0495 14.6861 34.8979 14.2954 34.8898C14.2864 34.4828 14.1259 34.1026 13.839 33.8149L13.3923 33.3682C13.1053 33.0812 12.7243 32.9199 12.3174 32.911C12.3085 32.5203 12.1569 32.1328 11.8602 31.8353L11.4135 31.3886C11.1176 31.0927 10.7237 30.9298 10.3037 30.9298C9.88383 30.9298 9.48905 31.0927 9.19397 31.3886L8.54546 32.0371L7.19898 29.9821C7.18033 29.9546 7.15926 29.9286 7.13575 29.9043L6.46048 29.2291L11.7921 23.8974L12.4674 24.5727C12.5338 24.6392 12.6189 24.6854 12.7105 24.7048L15.0922 25.2066L13.4377 26.8612C13.1078 27.1911 12.9254 27.6321 12.9254 28.1014C12.9254 28.5708 13.107 29.011 13.4377 29.3417L13.9606 29.8646C14.2905 30.1945 14.7315 30.3769 15.2008 30.3769C15.6702 30.3769 16.1104 30.1953 16.4411 29.8646L17.2874 29.0183C18.0227 28.283 18.9914 28.5027 20.1677 29.6717L24.7348 34.2105C24.8459 34.3207 24.9075 34.4699 24.9075 34.6296C24.9059 34.7933 24.8443 34.9441 24.7316 35.056ZM26.8701 29.9068C26.8514 29.9254 26.8336 29.9465 26.8182 29.9676L24.7519 32.8599L20.851 28.9834C18.6307 26.7769 17.1367 27.7926 16.5968 28.3317L15.7505 29.178C15.6037 29.3247 15.4076 29.405 15.1984 29.405C14.9893 29.405 14.7931 29.3239 14.6464 29.178L14.1235 28.6551C13.9768 28.5084 13.8965 28.3122 13.8965 28.1031C13.8965 27.8939 13.9776 27.6977 14.1235 27.551L16.3641 25.3128C16.4873 25.1961 17.1829 24.8799 18.1775 24.7859L21.2053 24.7178C21.3301 24.7154 21.4501 24.6643 21.5385 24.5751L22.2137 23.8999L27.5453 29.2315L26.8701 29.9068ZM32.0647 27.5283L29.9773 29.6157C29.7924 29.8006 29.4909 29.8006 29.3061 29.6157L22.024 22.3337C21.9349 22.2445 21.8862 22.1254 21.8862 21.9981C21.8862 21.8708 21.9349 21.7517 22.024 21.6625L24.1115 19.5751C24.2963 19.3903 24.5978 19.3903 24.7827 19.5751L32.0647 26.8571C32.1539 26.9463 32.2025 27.0654 32.2025 27.1927C32.2025 27.32 32.1539 27.4392 32.0647 27.5283ZM4.72003 26.8377C4.90972 27.0273 4.90972 27.3354 4.72003 27.5259L4.41117 27.8347C4.31633 27.9296 4.19149 27.9774 4.06746 27.9774C3.94262 27.9774 3.81859 27.9296 3.72375 27.8347C3.53406 27.6451 3.53406 27.337 3.72375 27.1465L4.0326 26.8377C4.22229 26.648 4.53034 26.648 4.72003 26.8377ZM30.3623 27.1473C30.552 27.337 30.552 27.6451 30.3623 27.8347C30.2675 27.9296 30.1426 27.9774 30.0186 27.9774C29.8946 27.9774 29.7697 27.9296 29.6749 27.8347L29.366 27.5259C29.1764 27.3362 29.1764 27.0282 29.366 26.8385C29.5557 26.6488 29.8638 26.6488 30.0543 26.8385L30.3623 27.1473Z" fill="white"/>
<path d="M32.7521 26.1689L25.4701 18.8869C24.9059 18.3226 23.9874 18.3226 23.4232 18.8869L21.3358 20.9743C21.0634 21.2466 20.9126 21.6106 20.9126 21.9981C20.9126 22.3856 21.0626 22.7488 21.3358 23.022L21.5255 23.2116L20.988 23.7491L18.1378 23.8131C18.1265 23.8131 18.1159 23.814 18.1046 23.8148C17.2785 23.8902 16.4614 24.1228 15.975 24.4041C15.958 24.3984 15.9402 24.3936 15.9223 24.3895L13.051 23.784L12.4779 23.2108L12.6676 23.0211C12.94 22.7488 13.0907 22.3848 13.0907 21.9973C13.0907 21.6098 12.9408 21.2466 12.6676 20.9735L10.5802 18.886C10.016 18.3218 9.09751 18.3218 8.5333 18.886L1.25128 26.1681C0.978905 26.4404 0.828125 26.8044 0.828125 27.1919C0.828125 27.5794 0.978094 27.9426 1.25128 28.2157L3.33869 30.3032C3.62079 30.5853 3.99126 30.7263 4.36253 30.7263C4.733 30.7263 5.10427 30.5853 5.38638 30.3032L5.77062 29.9189L6.41103 30.5593L7.84101 32.7416L7.2768 33.3058C6.66476 33.9178 6.66476 34.9141 7.2768 35.5261L7.72346 35.9728C8.01043 36.2598 8.39144 36.4211 8.79838 36.43C8.8073 36.8207 8.95889 37.2082 9.25558 37.5057L9.70225 37.9524C9.99003 38.2402 10.3702 38.4007 10.778 38.4096C10.7869 38.8165 10.9474 39.1975 11.2352 39.4853L11.6818 39.932C11.9875 40.2376 12.3895 40.3908 12.7916 40.3908C13.0016 40.3908 13.2107 40.3479 13.4069 40.2652C13.4823 40.4986 13.6104 40.7118 13.7887 40.8894L14.2354 41.336C14.5313 41.6319 14.9252 41.7949 15.3451 41.7949C15.6613 41.7949 15.962 41.7024 16.2174 41.5314L16.2401 41.5541C16.5465 41.8597 16.9478 42.0129 17.3499 42.0129C17.7519 42.0129 18.154 41.8597 18.4596 41.5541L18.9063 41.1074C19.0871 40.9266 19.2135 40.711 19.2873 40.4824C19.4835 40.5667 19.6934 40.6097 19.9026 40.6097C20.3047 40.6097 20.7067 40.4557 21.0132 40.1492L21.4598 39.7026C21.7573 39.4051 21.9089 39.0176 21.917 38.6269C22.324 38.6179 22.7042 38.4574 22.992 38.1696L23.4386 37.723C23.7264 37.4352 23.8869 37.055 23.8958 36.6473C24.3028 36.6383 24.6838 36.4778 24.9715 36.1901L25.4182 35.7434C25.7149 35.4467 25.8778 35.0511 25.877 34.6296C25.8762 34.2251 25.7238 33.8465 25.4482 33.5563L27.5851 30.565L28.232 29.9181L28.6162 30.3023C28.8983 30.5845 29.2688 30.7255 29.64 30.7255C30.0105 30.7255 30.3818 30.5845 30.6639 30.3023L32.7513 28.2149C33.0237 27.9426 33.1745 27.5786 33.1745 27.1911C33.1753 26.8052 33.0253 26.4421 32.7521 26.1689ZM4.02693 29.6157L1.93952 27.5283C1.85035 27.4392 1.80171 27.32 1.80171 27.1927C1.80171 27.0654 1.85035 26.9463 1.93952 26.8571L9.22154 19.5751C9.31395 19.4827 9.43555 19.4365 9.55714 19.4365C9.67874 19.4365 9.80034 19.4827 9.89275 19.5751L11.9802 21.6625C12.0693 21.7517 12.118 21.8708 12.118 21.9981C12.118 22.1254 12.0693 22.2445 11.9802 22.3337L4.69814 29.6157C4.51331 29.8006 4.21175 29.8006 4.02693 29.6157ZM7.96423 34.8387C7.73157 34.6061 7.73157 34.2275 7.96423 33.994L9.87978 32.0785C9.99165 31.9666 10.1416 31.905 10.3021 31.905C10.4626 31.905 10.6126 31.9666 10.7245 32.0785L11.1711 32.5251C11.4038 32.7578 11.4038 33.1364 11.1711 33.3698L9.25558 35.2854C9.14371 35.3972 8.99374 35.4589 8.83324 35.4589C8.67273 35.4589 8.52276 35.3972 8.41089 35.2854L7.96423 34.8387ZM9.94382 36.8175C9.83195 36.7056 9.77034 36.5557 9.77034 36.3951C9.77034 36.2346 9.83195 36.0847 9.94382 35.9728L11.8594 34.0572C11.9712 33.9454 12.1212 33.8838 12.2817 33.8838C12.4422 33.8838 12.5922 33.9454 12.7041 34.0572L13.1507 34.5039C13.3834 34.7366 13.3834 35.1151 13.1507 35.3486L11.2352 37.2642C11.1233 37.376 10.9733 37.4376 10.8128 37.4376C10.6523 37.4376 10.5024 37.376 10.3905 37.2642L9.94382 36.8175ZM12.3693 39.2429L11.9226 38.7963C11.8107 38.6844 11.7491 38.5344 11.7491 38.3739C11.7491 38.2134 11.8107 38.0635 11.9226 37.9516L13.8382 36.036C13.9549 35.9193 14.1073 35.8617 14.2605 35.8617C14.4137 35.8617 14.5661 35.9201 14.6828 36.036L15.1295 36.4827C15.2414 36.5946 15.303 36.7445 15.303 36.905C15.303 37.0655 15.2414 37.2155 15.1295 37.3274L13.7887 38.6682L13.214 39.2429C12.9813 39.4756 12.6019 39.4764 12.3693 39.2429ZM15.3451 40.8213C15.1846 40.8213 15.0347 40.7597 14.9228 40.6478L14.4761 40.2011C14.3643 40.0893 14.3027 39.9393 14.3027 39.7788C14.3027 39.6183 14.3643 39.4683 14.4761 39.3564L15.8169 38.0156C15.9337 37.8989 16.0861 37.8413 16.2393 37.8413C16.3925 37.8413 16.5449 37.8997 16.6616 38.0156L17.1083 38.4623C17.2202 38.5742 17.2818 38.7241 17.2818 38.8846C17.2818 39.0451 17.2202 39.1951 17.1083 39.307L15.7675 40.6478C15.6556 40.7597 15.5057 40.8213 15.3451 40.8213ZM18.2197 40.4192L17.773 40.8659C17.5404 41.0985 17.161 41.0985 16.9283 40.8659L16.9267 40.8642L17.7957 39.9952C17.9424 39.8485 18.0567 39.6766 18.1346 39.4894L18.2197 39.5745C18.4523 39.8071 18.4523 40.1857 18.2197 40.4192ZM24.7316 35.056L24.2849 35.5026C24.1731 35.6145 24.0231 35.6761 23.8626 35.6761C23.7021 35.6761 23.5529 35.6145 23.441 35.5026L20.0153 32.0768C19.8256 31.8872 19.5175 31.8872 19.327 32.0768C19.1373 32.2665 19.1373 32.5746 19.327 32.7643L20.8373 34.2745L22.7528 36.1901C22.8647 36.3019 22.9263 36.4519 22.9263 36.6124C22.9263 36.7729 22.8647 36.9229 22.7528 37.0347L22.3061 37.4814C22.1943 37.5933 22.0443 37.6549 21.8838 37.6549C21.7233 37.6549 21.5733 37.5933 21.4615 37.4814L19.5459 35.5659L17.9846 34.0046C17.7949 33.8149 17.4869 33.8149 17.2964 34.0046C17.1067 34.1943 17.1067 34.5023 17.2964 34.692L20.7732 38.1688C21.0059 38.4015 21.0059 38.7801 20.7732 39.0135L20.3266 39.4602C20.1061 39.6799 19.7405 39.6904 19.5078 39.4837C19.4705 39.4472 19.2954 39.2721 19.2662 39.2438L19.263 39.2405C19.2184 39.1967 19.1681 39.1635 19.1138 39.14C19.0555 39.05 18.9866 38.9641 18.9079 38.8846L17.9919 37.9686C17.9676 37.9443 17.9408 37.9232 17.9133 37.9046C17.8768 37.8592 17.8379 37.8146 17.7965 37.7724L17.3499 37.3258C17.0524 37.0283 16.6649 36.8767 16.2741 36.8686C16.2652 36.4616 16.1047 36.0814 15.8177 35.7937L15.3711 35.347C15.0736 35.0495 14.6861 34.8979 14.2954 34.8898C14.2864 34.4828 14.1259 34.1026 13.839 33.8149L13.3923 33.3682C13.1053 33.0812 12.7243 32.9199 12.3174 32.911C12.3085 32.5203 12.1569 32.1328 11.8602 31.8353L11.4135 31.3886C11.1176 31.0927 10.7237 30.9298 10.3037 30.9298C9.88383 30.9298 9.48905 31.0927 9.19397 31.3886L8.54546 32.0371L7.19898 29.9821C7.18033 29.9546 7.15926 29.9286 7.13575 29.9043L6.46048 29.2291L11.7921 23.8974L12.4674 24.5727C12.5338 24.6392 12.6189 24.6854 12.7105 24.7048L15.0922 25.2066L13.4377 26.8612C13.1078 27.1911 12.9254 27.6321 12.9254 28.1014C12.9254 28.5708 13.107 29.011 13.4377 29.3417L13.9606 29.8646C14.2905 30.1945 14.7315 30.3769 15.2008 30.3769C15.6702 30.3769 16.1104 30.1953 16.4411 29.8646L17.2874 29.0183C18.0227 28.283 18.9914 28.5027 20.1677 29.6717L24.7348 34.2105C24.8459 34.3207 24.9075 34.4699 24.9075 34.6296C24.9059 34.7933 24.8443 34.9441 24.7316 35.056ZM26.8701 29.9068C26.8514 29.9254 26.8336 29.9465 26.8182 29.9676L24.7519 32.8599L20.851 28.9834C18.6307 26.7769 17.1367 27.7926 16.5968 28.3317L15.7505 29.178C15.6037 29.3247 15.4076 29.405 15.1984 29.405C14.9893 29.405 14.7931 29.3239 14.6464 29.178L14.1235 28.6551C13.9768 28.5084 13.8965 28.3122 13.8965 28.1031C13.8965 27.8939 13.9776 27.6977 14.1235 27.551L16.3641 25.3128C16.4873 25.1961 17.1829 24.8799 18.1775 24.7859L21.2053 24.7178C21.3301 24.7154 21.4501 24.6643 21.5385 24.5751L22.2137 23.8999L27.5453 29.2315L26.8701 29.9068ZM32.0647 27.5283L29.9773 29.6157C29.7924 29.8006 29.4909 29.8006 29.3061 29.6157L22.024 22.3337C21.9349 22.2445 21.8862 22.1254 21.8862 21.9981C21.8862 21.8708 21.9349 21.7517 22.024 21.6625L24.1115 19.5751C24.2963 19.3903 24.5978 19.3903 24.7827 19.5751L32.0647 26.8571C32.1539 26.9463 32.2025 27.0654 32.2025 27.1927C32.2025 27.32 32.1539 27.4392 32.0647 27.5283ZM4.72003 26.8377C4.90972 27.0273 4.90972 27.3354 4.72003 27.5259L4.41117 27.8347C4.31633 27.9296 4.19149 27.9774 4.06746 27.9774C3.94262 27.9774 3.81859 27.9296 3.72375 27.8347C3.53406 27.6451 3.53406 27.337 3.72375 27.1465L4.0326 26.8377C4.22229 26.648 4.53034 26.648 4.72003 26.8377ZM30.3623 27.1473C30.552 27.337 30.552 27.6451 30.3623 27.8347C30.2675 27.9296 30.1426 27.9774 30.0186 27.9774C29.8946 27.9774 29.7697 27.9296 29.6749 27.8347L29.366 27.5259C29.1764 27.3362 29.1764 27.0282 29.366 26.8385C29.5557 26.6488 29.8638 26.6488 30.0543 26.8385L30.3623 27.1473Z" stroke="white" stroke-width="0.2" mask="url(#path-2-outside-1_584_8757)"/>
<path d="M21.3138 6.7627L16.3634 11.713L14.1133 9.46287" stroke="#072D4C" stroke-width="1.6" stroke-linecap="round" stroke-linejoin="round"/>
</svg>
