<svg width="36" height="37" viewBox="0 0 36 37" fill="none" xmlns="http://www.w3.org/2000/svg">
<path d="M9.77471 14.6038C9.21558 14.6038 8.76221 15.0571 8.76221 15.6163C8.76221 16.1754 9.21558 16.6288 9.77471 16.6288H20.631C21.1901 16.6288 21.6435 16.1754 21.6435 15.6163C21.6435 15.0571 21.1901 14.6038 20.631 14.6038H9.77471Z" fill="white"/>
<path d="M14.6561 20.3516H9.77471C9.21558 20.3516 8.76221 20.8049 8.76221 21.3641C8.76221 21.9232 9.21558 22.3766 9.77471 22.3766H14.6561C15.2152 22.3766 15.6686 21.9232 15.6686 21.3641C15.6686 20.8049 15.2152 20.3516 14.6561 20.3516Z" fill="white"/>
<path d="M14.5066 33.2395H6.80038C5.14326 33.2395 3.79663 31.8873 3.79663 30.2245V9.71575C3.79663 8.053 5.14326 6.70075 6.80038 6.70075H8.89176V6.955C8.89176 8.43213 10.0933 9.6325 11.5704 9.6325H21.2454C22.7225 9.6325 23.924 8.43213 23.924 6.955V6.70075H26.0053C27.6894 6.70075 29.0079 8.02488 29.0079 9.71575V15.487C29.0079 16.0461 29.4613 16.4995 30.0204 16.4995C30.5795 16.4995 31.0329 16.0461 31.0329 15.487V9.71575C31.0329 6.937 28.7773 4.67575 26.0041 4.67575H23.9229V4.417C23.9229 2.93988 22.7214 1.7395 21.2443 1.7395H11.5693C10.0921 1.7395 8.89063 2.93988 8.89063 4.417V4.67575H6.80038C4.02726 4.67575 1.77051 6.937 1.77051 9.71575V30.2245C1.77051 33.0033 4.02726 35.2645 6.80038 35.2645H14.5066C15.0658 35.2645 15.5191 34.8111 15.5191 34.252C15.5191 33.6929 15.0658 33.2395 14.5066 33.2395ZM10.9179 4.417C10.9179 4.057 11.2104 3.7645 11.5704 3.7645H21.2454C21.6054 3.7645 21.8979 4.057 21.8979 4.417V6.95388C21.8979 7.31388 21.6054 7.60638 21.2454 7.60638H11.5704C11.2104 7.60638 10.9179 7.31388 10.9179 6.95388V4.417Z" fill="white"/>
<path d="M33.1536 20.0298C31.7676 18.6427 29.3477 18.6415 27.9606 20.0298L18.9842 29.0062C18.6951 29.2953 18.5061 29.662 18.4375 30.0659L17.9447 32.9785C17.8401 33.6029 18.046 34.2442 18.4937 34.6908C18.8639 35.0609 19.3645 35.2634 19.8786 35.2634C19.9877 35.2634 20.0957 35.2544 20.2037 35.2364L23.1152 34.7448C23.5191 34.6762 23.8859 34.4872 24.175 34.198L33.1514 25.2217C34.5835 23.7907 34.5835 21.4619 33.1536 20.0298Z" fill="#FFC5C5"/>
</svg>
