<svg width="50" height="50" viewBox="0 0 50 50" fill="none" xmlns="http://www.w3.org/2000/svg">
<path d="M49.408 17.9642L41.1133 11.8114V1.46484C41.1133 0.655746 40.4575 0 39.6484 0H10.3516C9.54247 0 8.88672 0.655746 8.88672 1.46484V11.8114L0.592041 17.9642C0.226212 18.235 0 18.6771 0 19.1383V19.1395V19.1406V48.5352C0 49.3443 0.655746 50 1.46484 50H48.5352C49.3443 50 50 49.3443 50 48.5352V19.1406C50 19.1402 50 19.1399 50 19.1395C49.9977 19.1296 50.0187 18.4162 49.408 17.9642ZM47.0703 45.6039L31.3477 33.7952L47.0703 22.0615V45.6039ZM2.92969 22.0615L18.6523 33.7952L2.92969 45.6039V22.0615ZM25 32.6916L44.1441 47.0703H5.85594L25 32.6916ZM46.0812 19.1441L41.1133 22.8516V15.4594L46.0812 19.1441ZM38.1836 2.92969V25.0378L28.9062 31.9614L25.8797 29.6883C25.3586 29.2969 24.6414 29.2969 24.1203 29.6883L21.0938 31.9614L11.8164 25.0378V2.92969H38.1836ZM8.88672 15.4591V22.8516L3.91884 19.1441L8.88672 15.4591Z" fill="white"/>
<path d="M25.0006 24.0569C26.3936 24.0569 27.7272 23.7425 28.9646 23.1225C29.5895 22.8094 29.8423 22.0489 29.5292 21.424C29.2164 20.799 28.4557 20.5462 27.8307 20.8594C26.9483 21.3014 25.9961 21.5255 25.0006 21.5255C21.511 21.5255 18.6721 18.6866 18.6721 15.1969C18.6721 11.7073 21.511 8.86835 25.0006 8.86835C28.4903 8.86835 31.3292 11.7073 31.3292 15.1969C31.3292 15.8947 30.7613 16.4626 30.0635 16.4626C29.3657 16.4626 28.7978 15.8947 28.7978 15.1969C28.7978 13.1032 27.0943 11.3998 25.0006 11.3998C22.9069 11.3998 21.2035 13.1032 21.2035 15.1969C21.2035 17.2906 22.9069 18.9941 25.0006 18.9941C25.9723 18.9941 26.8597 18.6269 27.5321 18.024C28.2045 18.6266 29.0918 18.9941 30.0635 18.9941C32.1572 18.9941 33.8607 17.2906 33.8607 15.1969C33.8607 10.3114 29.8862 6.33691 25.0006 6.33691C20.1151 6.33691 16.1406 10.3114 16.1406 15.1969C16.1406 20.0825 20.1151 24.0569 25.0006 24.0569ZM25.0006 16.4626C24.3028 16.4626 23.7349 15.8947 23.7349 15.1969C23.7349 14.4991 24.3028 13.9312 25.0006 13.9312C25.6984 13.9312 26.2664 14.4991 26.2664 15.1969C26.2664 15.8947 25.6984 16.4626 25.0006 16.4626Z" fill="#FFC5C5"/>
</svg>
