<svg width="40" height="30" viewBox="0 0 40 30" fill="none" xmlns="http://www.w3.org/2000/svg">
<path d="M38.3335 11.7271C38.8161 11.7271 39.2074 11.3362 39.2074 10.8532V3.88911C39.2074 1.74443 37.4626 0 35.3183 0H4.68207C2.53783 0 0.792969 1.74443 0.792969 3.88911V10.8532C0.792969 11.3362 1.18431 11.7271 1.66689 11.7271C3.47144 11.7271 4.93979 13.195 4.93979 15C4.93979 16.805 3.47144 18.2729 1.66689 18.2729C1.18431 18.2729 0.792969 18.6638 0.792969 19.1468V26.1109C0.792969 28.2556 2.53783 30 4.68207 30H35.3183C37.4626 30 39.2074 28.2556 39.2074 26.1109V19.1468C39.2074 18.6638 38.8161 18.2729 38.3335 18.2729C36.5285 18.2729 35.0602 16.805 35.0602 15C35.0602 13.195 36.5285 11.7271 38.3335 11.7271ZM37.4596 19.9448V26.1109C37.4596 27.2912 36.4991 28.2522 35.3183 28.2522H31.5847V25.627C31.5847 25.144 31.1933 24.7531 30.7107 24.7531C30.2282 24.7531 29.8368 25.144 29.8368 25.627V28.2522H4.68207C3.50132 28.2522 2.5408 27.2912 2.5408 26.1109V19.9448C4.89417 19.53 6.68763 17.4707 6.68763 15C6.68763 12.5293 4.89417 10.47 2.5408 10.0552V3.88911C2.5408 2.70879 3.50132 1.74783 4.68207 1.74783L29.8368 1.74783V4.37299C29.8368 4.85601 30.2282 5.24691 30.7107 5.24691C31.1933 5.24691 31.5847 4.85601 31.5847 4.37299V1.74783H35.3183C36.4991 1.74783 37.4596 2.70879 37.4596 3.88911V10.0552C35.1058 10.47 33.3123 12.5293 33.3123 15C33.3123 17.4707 35.1058 19.53 37.4596 19.9448Z" fill="white"/>
<path d="M30.5477 8.25195C30.0652 8.25195 29.6738 8.64286 29.6738 9.12587V12.6249C29.6738 13.108 30.0652 13.4989 30.5477 13.4989C31.0303 13.4989 31.4217 13.108 31.4217 12.6249V9.12587C31.4217 8.64286 31.0303 8.25195 30.5477 8.25195Z" fill="white"/>
<path d="M30.5477 16.502C30.0652 16.502 29.6738 16.8929 29.6738 17.3759V20.8749C29.6738 21.358 30.0652 21.7489 30.5477 21.7489C31.0303 21.7489 31.4217 21.358 31.4217 20.8749V17.3759C31.4217 16.8929 31.0303 16.502 30.5477 16.502Z" fill="white"/>
<path d="M20.2794 22.1103L22.0321 15.9768L24.2271 15.9768C24.4864 15.9768 24.735 15.8739 24.9183 15.6905C25.1016 15.5072 25.2046 15.2586 25.2046 14.9994C25.2046 14.7401 25.1016 14.4915 24.9183 14.3082C24.735 14.1249 24.4864 14.0219 24.2271 14.0219L22.0321 14.0219L20.2794 7.88844C20.2208 7.68424 20.0973 7.50465 19.9277 7.37679C19.758 7.24893 19.5514 7.17975 19.3389 7.17969L16.406 7.17969C16.2776 7.17964 16.1505 7.20489 16.0318 7.25399C15.9132 7.30309 15.8054 7.37509 15.7146 7.46586C15.6238 7.55663 15.5518 7.66441 15.5027 7.78302C15.4536 7.90163 15.4283 8.02876 15.4283 8.15715L15.4283 14.0219L11.2443 14.0219L10.4894 11.7577C10.416 11.5376 10.2666 11.3508 10.068 11.2307C9.86943 11.1106 9.6346 11.065 9.40553 11.1022C9.17646 11.1394 8.96809 11.2569 8.81771 11.4337C8.66733 11.6104 8.58475 11.8349 8.58473 12.067L8.58473 17.9318C8.58475 18.1638 8.66733 18.3883 8.81771 18.5651C8.96809 18.7418 9.17646 18.8593 9.40553 18.8965C9.6346 18.9337 9.86943 18.8882 10.068 18.7681C10.2666 18.648 10.416 18.4612 10.4894 18.241L11.2443 15.9768L15.4283 15.9768L15.4283 21.8416C15.4283 21.97 15.4536 22.0971 15.5027 22.2157C15.5518 22.3343 15.6238 22.4421 15.7146 22.5329C15.8054 22.6237 15.9132 22.6956 16.0318 22.7448C16.1505 22.7939 16.2776 22.8191 16.406 22.8191L19.3389 22.8191C19.5514 22.819 19.758 22.7498 19.9277 22.622C20.0973 22.4941 20.2208 22.3145 20.2794 22.1103Z" fill="#FFC5C5"/>
</svg>
