<svg width="14" height="14" viewBox="0 0 14 14" fill="none" xmlns="http://www.w3.org/2000/svg">
<path d="M12.6968 7.06934C12.6968 8.66063 12.0646 10.1868 10.9394 11.312C9.8142 12.4372 8.28808 13.0693 6.69678 13.0693C5.10548 13.0693 3.57936 12.4372 2.45414 11.312C1.32892 10.1868 0.696777 8.66063 0.696777 7.06934M12.6968 7.06934C12.6968 5.47804 12.0646 3.95191 10.9394 2.8267C9.8142 1.70148 8.28808 1.06934 6.69678 1.06934C5.10548 1.06934 3.57936 1.70148 2.45414 2.8267C1.32892 3.95191 0.696777 5.47804 0.696777 7.06934M12.6968 7.06934H0.696777" stroke="#072D4C" stroke-width="0.800084" stroke-linecap="round" stroke-linejoin="round"/>
<path d="M9.00455 7.06934C8.89119 9.26348 8.08302 11.3647 6.69685 13.0693C5.31069 11.3647 4.50251 9.26348 4.38916 7.06934C4.50251 4.87519 5.31069 2.77394 6.69685 1.06934C8.08302 2.77394 8.89119 4.87519 9.00455 7.06934Z" stroke="#072D4C" stroke-width="0.800084" stroke-linecap="round" stroke-linejoin="round"/>
</svg>
