<svg width="40" height="32" viewBox="0 0 40 32" fill="none" xmlns="http://www.w3.org/2000/svg">
<rect x="1" y="1" width="38" height="30" rx="3" stroke="white" stroke-width="2"/>
<path d="M11.9025 15.2437C11.1615 15.2437 10.4372 15.0236 9.82151 14.6114C9.20578 14.1991 8.72635 13.6133 8.44403 12.9282C8.1617 12.2431 8.08921 11.4896 8.23573 10.7633C8.38226 10.0369 8.74121 9.37041 9.26705 8.84834C9.7929 8.32627 10.4619 7.97213 11.1893 7.83084C11.9167 7.68955 12.6697 7.76747 13.3528 8.05472C14.0358 8.34197 14.6182 8.82561 15.0259 9.4443C15.4337 10.063 15.6486 10.7888 15.6433 11.5298C15.6362 12.5173 15.239 13.4619 14.5382 14.1576C13.8374 14.8533 12.89 15.2438 11.9025 15.2437Z" fill="#FFC5C5"/>
<path d="M16.3324 24.2379H7.50848C7.11693 24.2362 6.73131 24.1422 6.38297 23.9633C6.03464 23.7845 5.73344 23.526 5.50386 23.2088C5.27935 22.8971 5.13359 22.5357 5.07905 22.1554C5.02451 21.7752 5.06279 21.3874 5.19064 21.0252C5.69921 19.655 6.61492 18.4734 7.81475 17.6389C9.01458 16.8045 10.4411 16.3572 11.9025 16.3572C13.364 16.3572 14.7905 16.8045 15.9903 17.6389C17.1901 18.4734 18.1058 19.655 18.6144 21.0252C18.7423 21.3874 18.7806 21.7752 18.726 22.1554C18.6715 22.5357 18.5257 22.8971 18.3012 23.2088C18.0752 23.5211 17.7797 23.7767 17.438 23.9553C17.0964 24.1339 16.7178 24.2307 16.3324 24.2379Z" fill="#FFC5C5"/>
<path d="M21.8976 9.84619H31.4854" stroke="white" stroke-width="2" stroke-linecap="round"/>
<path d="M21.8976 15.9998H28.1225" stroke="white" stroke-width="2" stroke-linecap="round"/>
</svg>
