<svg width="12" height="13" viewBox="0 0 12 13" fill="none" xmlns="http://www.w3.org/2000/svg">
<path d="M6.13629 5.547C6.92322 5.547 7.56116 4.90906 7.56116 4.12213C7.56116 3.3352 6.92322 2.69727 6.13629 2.69727C5.34936 2.69727 4.71143 3.3352 4.71143 4.12213C4.71143 4.90906 5.34936 5.547 6.13629 5.547Z" stroke="#072D4C" stroke-width="0.7" stroke-linecap="round" stroke-linejoin="round"/>
<path d="M8.13957 7.99789C9.41652 5.99415 9.256 6.24413 9.29279 6.19189C9.7577 5.53616 10.0034 4.76438 10.0034 3.95996C10.0034 1.82668 8.2723 0.0693359 6.13623 0.0693359C4.00712 0.0693359 2.26904 1.82321 2.26904 3.95996C2.26904 4.76387 2.51992 5.55584 3.00006 6.22041L4.13284 7.99791C2.92171 8.18403 0.862793 8.73868 0.862793 9.95996C0.862793 10.4052 1.15337 11.0396 2.53768 11.534C3.50429 11.8792 4.78227 12.0693 6.13623 12.0693C8.66807 12.0693 11.4097 11.3551 11.4097 9.95996C11.4097 8.73847 9.35317 8.18441 8.13957 7.99789ZM3.58738 5.83367C3.58351 5.82763 3.57948 5.82172 3.57526 5.81591C3.17572 5.26625 2.97217 4.61483 2.97217 3.95996C2.97217 2.20173 4.38793 0.772461 6.13623 0.772461C7.88089 0.772461 9.30029 2.20236 9.30029 3.95996C9.30029 4.61588 9.10058 5.2452 8.72265 5.78038C8.68879 5.82505 8.86548 5.55055 6.13623 9.83314L3.58738 5.83367ZM6.13623 11.3662C3.37075 11.3662 1.56592 10.5533 1.56592 9.95996C1.56592 9.56115 2.49329 8.90539 4.54829 8.64978L5.83975 10.6763C5.90429 10.7776 6.01609 10.8389 6.13621 10.8389C6.25632 10.8389 6.36814 10.7775 6.43267 10.6763L7.7241 8.64978C9.77914 8.90539 10.7065 9.56115 10.7065 9.95996C10.7065 10.5483 8.91796 11.3662 6.13623 11.3662Z" fill="#072D4C"/>
</svg>
