<svg width="14" height="10" viewBox="0 0 14 10" fill="none" xmlns="http://www.w3.org/2000/svg">
<path d="M1.20166 2.11406C1.20166 1.7958 1.32809 1.49058 1.55313 1.26553C1.77818 1.04049 2.0834 0.914063 2.40166 0.914062H12.0017C12.3199 0.914063 12.6251 1.04049 12.8502 1.26553C13.0752 1.49058 13.2017 1.7958 13.2017 2.11406V8.11406C13.2017 8.43232 13.0752 8.73755 12.8502 8.96259C12.6251 9.18763 12.3199 9.31406 12.0017 9.31406H2.40166C2.0834 9.31406 1.77818 9.18763 1.55313 8.96259C1.32809 8.73755 1.20166 8.43232 1.20166 8.11406V2.11406Z" stroke="#072D4C" stroke-width="0.624721" stroke-linecap="round" stroke-linejoin="round"/>
<path d="M7.20149 6.91469C8.19567 6.91469 9.00161 6.10875 9.00161 5.11457C9.00161 4.12039 8.19567 3.31445 7.20149 3.31445C6.20731 3.31445 5.40137 4.12039 5.40137 5.11457C5.40137 6.10875 6.20731 6.91469 7.20149 6.91469Z" stroke="#072D4C" stroke-width="0.624721" stroke-linecap="round" stroke-linejoin="round"/>
<path d="M1.20166 3.31406C1.83818 3.31406 2.44863 3.06121 2.89872 2.61112C3.3488 2.16103 3.60166 1.55058 3.60166 0.914062" stroke="#072D4C" stroke-width="0.624721" stroke-linecap="round" stroke-linejoin="round"/>
<path d="M10.8008 9.31406C10.8008 8.67754 11.0536 8.06709 11.5037 7.61701C11.9538 7.16692 12.5643 6.91406 13.2008 6.91406" stroke="#072D4C" stroke-width="0.624721" stroke-linecap="round" stroke-linejoin="round"/>
</svg>
