<svg width="34" height="37" viewBox="0 0 34 37" fill="none" xmlns="http://www.w3.org/2000/svg">
<path d="M6.51013 19.1107H29.233C31.0481 19.1107 32.5252 17.6336 32.5252 15.8185V3.94067C32.5252 2.12555 31.0481 0.648438 29.233 0.648438H6.51013C4.69502 0.648438 3.2179 2.12555 3.2179 3.94067V15.8185C3.2179 17.6336 4.69502 19.1107 6.51013 19.1107ZM5.41272 3.94067C5.41272 3.33599 5.90436 2.84326 6.51013 2.84326H29.233C29.8387 2.84326 30.3304 3.33599 30.3304 3.94067V15.8185C30.3304 16.4232 29.8387 16.9159 29.233 16.9159H6.51013C5.90436 16.9159 5.41272 16.4232 5.41272 15.8185V3.94067ZM31.7241 22.7893C30.7353 22.2405 29.571 22.2724 28.6129 22.8705L22.6002 26.6291C22.4257 26.7388 22.2249 26.7959 22.0197 26.7959H19.1675C19.3903 26.1682 19.4188 25.479 19.2356 24.8096C18.8482 23.3939 17.5082 22.4063 15.973 22.4063H10.5759C9.9866 22.4063 9.44118 22.5742 8.96271 22.8463C8.37889 21.9245 7.3561 21.3067 6.18627 21.3067H3.99145C2.17633 21.3067 0.699219 22.7838 0.699219 24.5989V33.3562C0.699219 35.1713 2.17633 36.6484 3.99145 36.6484H6.18627C7.34842 36.6484 8.36572 36.0405 8.95174 35.1285C9.4335 35.404 9.98221 35.5741 10.5759 35.5741H21.8375C22.6211 35.5741 23.3805 35.2942 23.9764 34.785L32.523 27.484L32.6876 27.3084C33.0487 26.8277 33.3011 26.0716 33.3011 25.4691C33.3011 24.3388 32.7107 23.3369 31.723 22.7893H31.7241ZM7.28477 25.6974V33.3562C7.28477 33.9609 6.79313 34.4536 6.18736 34.4536H3.99254C3.38677 34.4536 2.89513 33.9609 2.89513 33.3562V24.5989C2.89513 23.9942 3.38677 23.5015 3.99254 23.5015H6.18736C6.79313 23.5015 7.28477 23.9942 7.28477 24.5989V25.6974ZM30.9756 25.9202L22.5519 33.1159C22.3533 33.286 22.0998 33.3793 21.8386 33.3793H10.577C9.97123 33.3793 9.47959 32.8865 9.47959 32.2818V25.6974C9.47959 25.0927 9.97123 24.6 10.577 24.6H15.9741C16.5129 24.6 16.9947 24.9303 17.1187 25.3857C17.2471 25.8554 17.0594 26.1956 16.9365 26.3558C16.7247 26.6346 16.4064 26.7937 16.064 26.7937H12.7718C12.165 26.7937 11.6744 27.2853 11.6744 27.8911C11.6744 28.4969 12.165 28.9885 12.7718 28.9885H22.0197C22.6375 28.9885 23.2411 28.8151 23.7646 28.4881L29.7773 24.7306C30.1691 24.4848 30.5257 24.6318 30.6607 24.7075C30.7957 24.7822 31.1084 25.006 31.1084 25.468C31.1084 25.5679 31.0404 25.7896 30.9767 25.9202H30.9756Z" fill="white"/>
<ellipse cx="17.6416" cy="9.80563" rx="5.43258" ry="5.43258" fill="#FFC5C5"/>
<path d="M14.5707 12.2039C14.5147 12.2039 14.4671 12.1843 14.4279 12.1451C14.3887 12.106 14.3691 12.0584 14.3691 12.0024V7.60978C14.3691 7.54818 14.3887 7.50059 14.4279 7.467C14.4671 7.4278 14.5147 7.4082 14.5707 7.4082H16.8972C17.6531 7.4082 18.213 7.57618 18.577 7.91213C18.9465 8.24809 19.1313 8.77441 19.1313 9.49112V10.4822C19.1313 10.5382 19.1117 10.5858 19.0725 10.625C19.0389 10.6642 18.9913 10.6838 18.9297 10.6838H18.2578C18.1962 10.6838 18.1458 10.6642 18.1066 10.625C18.0674 10.5858 18.0478 10.5382 18.0478 10.4822V9.49951C18.0478 8.70442 17.6503 8.30688 16.8552 8.30688H15.4526V12.0024C15.4526 12.0584 15.433 12.106 15.3938 12.1451C15.3546 12.1843 15.3042 12.2039 15.2426 12.2039H14.5707ZM16.3513 12.2039C16.2953 12.2039 16.2477 12.1843 16.2085 12.1451C16.1693 12.106 16.1497 12.0584 16.1497 12.0024V9.12157C16.1497 9.05997 16.1693 9.01238 16.2085 8.97879C16.2477 8.93959 16.2953 8.91999 16.3513 8.91999H17.0232C17.0848 8.91999 17.1324 8.93959 17.166 8.97879C17.2051 9.01238 17.2247 9.05997 17.2247 9.12157V11.3053H18.6358C19.4308 11.3053 19.8284 10.9077 19.8284 10.1126V7.60978C19.8284 7.54818 19.848 7.50059 19.8872 7.467C19.9264 7.4278 19.974 7.4082 20.03 7.4082H20.7103C20.7663 7.4082 20.8138 7.4278 20.853 7.467C20.8922 7.50619 20.9118 7.55378 20.9118 7.60978V10.121C20.9118 10.8377 20.7271 11.3641 20.3575 11.7C19.9936 12.036 19.4336 12.2039 18.6777 12.2039H16.3513Z" fill="#072D4C"/>
</svg>
