<svg width="12" height="13" viewBox="0 0 12 13" fill="none" xmlns="http://www.w3.org/2000/svg">
<path d="M9.78526 12.0693C10.3262 12.0688 10.8449 11.858 11.2274 11.483C11.6099 11.108 11.825 10.5996 11.8255 10.0693V2.06934C11.825 1.53905 11.6099 1.03063 11.2274 0.65566C10.8449 0.280693 10.3262 0.0698231 9.78526 0.0693359H2.48802C1.94706 0.0698231 1.4284 0.280693 1.04588 0.65566C0.663367 1.03063 0.448251 1.53905 0.447754 2.06934V10.0693C0.448251 10.5996 0.663367 11.108 1.04588 11.483C1.4284 11.858 1.94706 12.0688 2.48802 12.0693H9.78526ZM1.26386 10.0693V2.06934C1.26423 1.75119 1.39332 1.44617 1.62282 1.22121C1.85231 0.99624 2.16347 0.869696 2.48802 0.869336H9.78526C10.1098 0.869696 10.421 0.99624 10.6505 1.22121C10.88 1.44617 11.0091 1.75119 11.0094 2.06934V10.0693C11.0091 10.3875 10.88 10.6925 10.6505 10.9175C10.421 11.1424 10.1098 11.269 9.78526 11.2693H2.48802C2.16347 11.269 1.85231 11.1424 1.62282 10.9175C1.39332 10.6925 1.26423 10.3875 1.26386 10.0693Z" fill="#072D4C"/>
<path d="M3.73691 4.06855H6.13691C6.243 4.06855 6.34474 4.02641 6.41976 3.9514C6.49477 3.87638 6.53691 3.77464 6.53691 3.66855C6.53691 3.56247 6.49477 3.46073 6.41976 3.38571C6.34474 3.3107 6.243 3.26855 6.13691 3.26855H3.73691C3.63083 3.26855 3.52909 3.3107 3.45407 3.38571C3.37906 3.46073 3.33691 3.56247 3.33691 3.66855C3.33691 3.77464 3.37906 3.87638 3.45407 3.9514C3.52909 4.02641 3.63083 4.06855 3.73691 4.06855Z" fill="#072D4C"/>
<path d="M3.73691 8.86934H8.53691C8.643 8.86934 8.74474 8.82719 8.81976 8.75218C8.89477 8.67716 8.93691 8.57542 8.93691 8.46934C8.93691 8.36325 8.89477 8.26151 8.81976 8.18649C8.74474 8.11148 8.643 8.06934 8.53691 8.06934H3.73691C3.63083 8.06934 3.52909 8.11148 3.45407 8.18649C3.37906 8.26151 3.33691 8.36325 3.33691 8.46934C3.33691 8.57542 3.37906 8.67716 3.45407 8.75218C3.52909 8.82719 3.63083 8.86934 3.73691 8.86934Z" fill="#072D4C"/>
<path d="M3.73691 6.46895H8.53691C8.643 6.46895 8.74474 6.4268 8.81976 6.35179C8.89477 6.27677 8.93691 6.17503 8.93691 6.06895C8.93691 5.96286 8.89477 5.86112 8.81976 5.7861C8.74474 5.71109 8.643 5.66895 8.53691 5.66895H3.73691C3.63083 5.66895 3.52909 5.71109 3.45407 5.7861C3.37906 5.86112 3.33691 5.96286 3.33691 6.06895C3.33691 6.17503 3.37906 6.27677 3.45407 6.35179C3.52909 6.4268 3.63083 6.46895 3.73691 6.46895Z" fill="#072D4C"/>
</svg>
