<svg width="13" height="9" viewBox="0 0 13 9" fill="none" xmlns="http://www.w3.org/2000/svg">
<path d="M1.09717 7.79395V0.793945L5.99717 7.79395V0.793945M8.79717 7.79395H12.2972M8.79717 2.89395C8.79717 3.4509 8.98154 3.98504 9.30973 4.37887C9.63792 4.7727 10.083 4.99395 10.5472 4.99395C11.0113 4.99395 11.4564 4.7727 11.7846 4.37887C12.1128 3.98504 12.2972 3.4509 12.2972 2.89395C12.2972 2.33699 12.1128 1.80285 11.7846 1.40902C11.4564 1.01519 11.0113 0.793945 10.5472 0.793945C10.083 0.793945 9.63792 1.01519 9.30973 1.40902C8.98154 1.80285 8.79717 2.33699 8.79717 2.89395Z" stroke="#072D4C" stroke-linecap="round" stroke-linejoin="round"/>
</svg>
