<svg width="17" height="16" viewBox="0 0 17 16" fill="none" xmlns="http://www.w3.org/2000/svg">
<path d="M9.70926 1.92859L10.9413 4.41289C11.1093 4.75869 11.5573 5.09049 11.9353 5.15349L14.1677 5.52799C15.5957 5.76809 15.9317 6.81248 14.9027 7.84288L13.1666 9.59288C12.8726 9.88898 12.7116 10.4609 12.8026 10.8704L13.2997 13.0369C13.6917 14.7519 12.7886 15.4148 11.2836 14.5188L9.19055 13.2693C8.81254 13.0439 8.18952 13.0439 7.80451 13.2693L5.71286 14.5188C4.21482 15.4148 3.3048 14.7442 3.69681 13.0369L4.19382 10.8704C4.28482 10.4609 4.12382 9.88898 3.82981 9.59288L2.09377 7.84288C1.07244 6.81178 1.40145 5.76809 2.82879 5.52799L5.06184 5.15349C5.43285 5.09049 5.88086 4.75869 6.04887 4.41289L7.2809 1.92859C7.95291 0.581094 9.04494 0.581094 9.70996 1.92859" fill="#FFC5C5"/>
<path d="M9.70926 1.92859L10.9413 4.41289C11.1093 4.75869 11.5573 5.09049 11.9353 5.15349L14.1677 5.52799C15.5957 5.76808 15.9317 6.81248 14.9027 7.84288L13.1666 9.59288C12.8726 9.88898 12.7116 10.4609 12.8026 10.8704L13.2997 13.0369C13.6917 14.7519 12.7886 15.4148 11.2836 14.5188L9.19055 13.2693C8.81254 13.0439 8.18952 13.0439 7.80451 13.2693L5.71286 14.5188C4.21482 15.4148 3.3048 14.7442 3.69681 13.0369L4.19382 10.8704C4.28482 10.4609 4.12382 9.88898 3.82981 9.59288L2.09377 7.84288C1.07244 6.81178 1.40145 5.76808 2.82879 5.52799L5.06184 5.15349C5.43285 5.09049 5.88086 4.75869 6.04887 4.41289L7.2809 1.92859C7.95291 0.581094 9.04494 0.581094 9.70996 1.92859" stroke="#072D4C" stroke-width="1.5" stroke-linecap="round" stroke-linejoin="round"/>
</svg>
