<svg width="25" height="24" viewBox="0 0 25 24" fill="none" xmlns="http://www.w3.org/2000/svg">
<path d="M14.4558 15.1087C14.7743 15.4271 15.2907 15.4271 15.6092 15.1087C15.9276 14.7902 15.9276 14.2738 15.6092 13.9553L14.4558 15.1087ZM9.45771 7.80382C9.13921 7.48533 8.62281 7.48533 8.30431 7.80382C7.98581 8.12232 7.98581 8.63872 8.30431 8.95722L9.45771 7.80382ZM8.30431 13.9553C7.98581 14.2738 7.98581 14.7902 8.30431 15.1087C8.62281 15.4271 9.13921 15.4271 9.45771 15.1087L8.30431 13.9553ZM15.6092 8.95722C15.9276 8.63872 15.9276 8.12232 15.6092 7.80382C15.2907 7.48533 14.7743 7.48533 14.4558 7.80382L15.6092 8.95722ZM22.7981 23.451C23.1166 23.7695 23.6329 23.7695 23.9515 23.451C24.27 23.1325 24.27 22.6161 23.9515 22.2976L22.7981 23.451ZM20.1454 18.4916C19.8269 18.1731 19.3106 18.1731 18.9921 18.4916C18.6736 18.8101 18.6736 19.3264 18.9921 19.645L20.1454 18.4916ZM21.4718 11.4563C21.4718 16.7113 17.2118 20.9713 11.9567 20.9713V22.6024C18.1126 22.6024 23.1029 17.6121 23.1029 11.4563H21.4718ZM11.9567 20.9713C6.70173 20.9713 2.4417 16.7113 2.4417 11.4563H0.810547C0.810547 17.6121 5.80087 22.6024 11.9567 22.6024V20.9713ZM2.4417 11.4563C2.4417 6.20124 6.70173 1.94121 11.9567 1.94121V0.310059C5.80087 0.310059 0.810547 5.30038 0.810547 11.4563H2.4417ZM11.9567 1.94121C17.2118 1.94121 21.4718 6.20124 21.4718 11.4563H23.1029C23.1029 5.30038 18.1126 0.310059 11.9567 0.310059V1.94121ZM15.6092 13.9553L12.5334 10.8796L11.3801 12.0329L14.4558 15.1087L15.6092 13.9553ZM12.5334 10.8796L9.45771 7.80382L8.30431 8.95722L11.3801 12.0329L12.5334 10.8796ZM9.45771 15.1087L12.5334 12.0329L11.3801 10.8796L8.30431 13.9553L9.45771 15.1087ZM12.5334 12.0329L15.6092 8.95722L14.4558 7.80382L11.3801 10.8796L12.5334 12.0329ZM23.9515 22.2976L20.1454 18.4916L18.9921 19.645L22.7981 23.451L23.9515 22.2976Z" fill="#072D4C"/>
</svg>
