<svg width="209" height="108" viewBox="0 0 209 108" fill="none" xmlns="http://www.w3.org/2000/svg">
<path d="M69.7806 93.958H139.382C144.551 93.958 148.756 89.7529 148.756 84.5837C148.756 80.4764 148.756 42.0973 148.756 35.7294C148.756 30.5606 144.551 26.3555 139.382 26.3555H69.7806C64.6114 26.3555 60.4062 30.5606 60.4062 35.7294V84.5837C60.4062 89.7529 64.6114 93.958 69.7806 93.958ZM62.3947 35.7292C62.3947 31.6571 65.7077 28.3438 69.7806 28.3438H139.382C143.455 28.3438 146.768 31.6571 146.768 35.7292V74.5282C146.768 78.6003 143.455 81.9136 139.382 81.9136H69.7806C65.7075 81.9136 62.3947 78.6003 62.3947 74.5282C62.3947 61.0945 62.3947 49.1629 62.3947 35.7292ZM62.3947 80.2806C64.1118 82.4801 66.7804 83.9021 69.7806 83.9021H139.382C142.382 83.9021 145.051 82.4799 146.768 80.2806V84.5837C146.768 88.6562 143.455 91.9695 139.382 91.9695H69.7806C65.7075 91.9695 62.3947 88.6562 62.3947 84.5837V80.2806Z" fill="#072D4C"/>
<path d="M143.867 22.4206C144.417 22.4206 144.861 21.9754 144.861 21.4264V14.7109C144.861 14.162 144.417 13.7168 143.867 13.7168C143.318 13.7168 142.873 14.162 142.873 14.7109V21.4264C142.873 21.9754 143.318 22.4206 143.867 22.4206Z" fill="#072D4C"/>
<path d="M151.813 25.4983L156.561 20.75C156.95 20.3616 156.95 19.7325 156.561 19.3441C156.173 18.9556 155.544 18.9556 155.155 19.3441L150.407 24.0923C150.018 24.4808 150.018 25.1098 150.407 25.4983C150.795 25.8865 151.424 25.8865 151.813 25.4983Z" fill="#072D4C"/>
<path d="M160.824 31.043H154.109C153.56 31.043 153.115 31.4881 153.115 32.0371C153.115 32.5861 153.56 33.0313 154.109 33.0313H160.824C161.374 33.0313 161.818 32.5861 161.818 32.0371C161.819 31.4881 161.374 31.043 160.824 31.043Z" fill="#072D4C"/>
<path d="M125.714 67.7836C125.527 67.7836 125.378 67.7276 125.266 67.6156C125.154 67.4849 125.098 67.3263 125.098 67.1396V48.8276C125.098 48.6409 125.154 48.4916 125.266 48.3796C125.378 48.2489 125.527 48.1836 125.714 48.1836H127.114C127.3 48.1836 127.45 48.2489 127.562 48.3796C127.674 48.4916 127.73 48.6409 127.73 48.8276V65.4316H137.082C137.287 65.4316 137.446 65.4969 137.558 65.6276C137.688 65.7396 137.754 65.8889 137.754 66.0756V67.1396C137.754 67.3263 137.688 67.4849 137.558 67.6156C137.427 67.7276 137.268 67.7836 137.082 67.7836H125.714Z" fill="#072D4C"/>
<path d="M110.326 67.7836C110.139 67.7836 109.99 67.7276 109.878 67.6156C109.766 67.4849 109.71 67.3263 109.71 67.1396V48.8276C109.71 48.6409 109.766 48.4916 109.878 48.3796C109.99 48.2489 110.139 48.1836 110.326 48.1836H111.726C111.913 48.1836 112.062 48.2489 112.174 48.3796C112.286 48.4916 112.342 48.6409 112.342 48.8276V65.4316H121.694C121.899 65.4316 122.058 65.4969 122.17 65.6276C122.301 65.7396 122.366 65.8889 122.366 66.0756V67.1396C122.366 67.3263 122.301 67.4849 122.17 67.6156C122.039 67.7276 121.881 67.7836 121.694 67.7836H110.326Z" fill="#072D4C"/>
<path d="M93.6814 67.7836C93.4948 67.7836 93.3454 67.7276 93.2334 67.6156C93.1214 67.4849 93.0654 67.3263 93.0654 67.1396V48.8556C93.0654 48.6503 93.1214 48.4916 93.2334 48.3796C93.3454 48.2489 93.4948 48.1836 93.6814 48.1836H105.189C105.395 48.1836 105.553 48.2489 105.665 48.3796C105.796 48.4916 105.861 48.6503 105.861 48.8556V49.8636C105.861 50.0503 105.796 50.1996 105.665 50.3116C105.553 50.4236 105.395 50.4796 105.189 50.4796H95.6414V56.7236H104.573C104.779 56.7236 104.937 56.7889 105.049 56.9196C105.18 57.0316 105.245 57.1903 105.245 57.3956V58.3476C105.245 58.5343 105.18 58.6929 105.049 58.8236C104.937 58.9356 104.779 58.9916 104.573 58.9916H95.6414V65.4596H105.413C105.619 65.4596 105.777 65.5249 105.889 65.6556C106.02 65.7676 106.085 65.9263 106.085 66.1316V67.1396C106.085 67.3263 106.02 67.4849 105.889 67.6156C105.759 67.7276 105.6 67.7836 105.413 67.7836H93.6814Z" fill="#072D4C"/>
<path d="M82.254 68.0643C80.7233 68.0643 79.3887 67.8216 78.25 67.3363C77.13 66.851 76.2713 66.2163 75.674 65.4323C75.0953 64.6296 74.7873 63.771 74.75 62.8563C74.75 62.707 74.806 62.5763 74.918 62.4643C75.03 62.3523 75.17 62.2963 75.338 62.2963H76.71C77.046 62.2963 77.2793 62.483 77.41 62.8563C77.578 63.6403 78.054 64.3216 78.838 64.9003C79.6407 65.4603 80.7793 65.7403 82.254 65.7403C83.8407 65.7403 85.026 65.4603 85.81 64.9003C86.594 64.3403 86.986 63.5656 86.986 62.5763C86.986 61.9416 86.79 61.419 86.398 61.0083C86.0247 60.5976 85.4553 60.243 84.69 59.9443C83.9433 59.627 82.814 59.2443 81.302 58.7963C79.8647 58.3856 78.7167 57.947 77.858 57.4803C77.018 57.0136 76.3833 56.4443 75.954 55.7723C75.5247 55.0816 75.31 54.2136 75.31 53.1683C75.31 52.1603 75.5807 51.2643 76.122 50.4803C76.6633 49.6776 77.4473 49.0523 78.474 48.6043C79.5007 48.1376 80.714 47.9043 82.114 47.9043C83.57 47.9043 84.8113 48.1656 85.838 48.6883C86.8833 49.1923 87.6767 49.8363 88.218 50.6203C88.7593 51.3856 89.0487 52.1603 89.086 52.9443C89.086 53.1123 89.03 53.2523 88.918 53.3643C88.806 53.4763 88.666 53.5323 88.498 53.5323H87.098C86.9487 53.5323 86.8087 53.4856 86.678 53.3923C86.5473 53.299 86.454 53.159 86.398 52.9723C86.286 52.1696 85.838 51.507 85.054 50.9843C84.27 50.4616 83.29 50.2003 82.114 50.2003C80.8447 50.2003 79.8367 50.4523 79.09 50.9563C78.3433 51.4416 77.97 52.1696 77.97 53.1403C77.97 53.7936 78.138 54.3256 78.474 54.7363C78.8287 55.147 79.3607 55.511 80.07 55.8283C80.798 56.1456 81.8527 56.5096 83.234 56.9203C84.8207 57.3683 86.062 57.8163 86.958 58.2643C87.8727 58.7123 88.554 59.2723 89.002 59.9443C89.45 60.5976 89.674 61.447 89.674 62.4923C89.674 64.247 89.002 65.619 87.658 66.6083C86.3327 67.579 84.5313 68.0643 82.254 68.0643Z" fill="#072D4C"/>
<path d="M50.095 41.5649C50.739 41.5649 51.2612 41.0433 51.2612 40.3988V31.1057C51.2612 28.2438 48.9328 25.916 46.0715 25.916H5.18971C2.32839 25.916 0 28.2438 0 31.1057V40.3988C0 41.0433 0.522213 41.5649 1.16618 41.5649C3.57421 41.5649 5.53362 43.5238 5.53362 45.9324C5.53362 48.341 3.57421 50.2998 1.16618 50.2998C0.522213 50.2998 0 50.8214 0 51.466V60.759C0 63.6209 2.32839 65.9487 5.18971 65.9487H46.0715C48.9328 65.9487 51.2612 63.6209 51.2612 60.759V51.466C51.2612 50.8214 50.739 50.2998 50.095 50.2998C47.6864 50.2998 45.727 48.341 45.727 45.9324C45.727 43.5238 47.6864 41.5649 50.095 41.5649ZM48.9288 52.5308V60.759C48.9288 62.3341 47.6471 63.6164 46.0715 63.6164H41.0892V60.1133C41.0892 59.4688 40.5669 58.9471 39.923 58.9471C39.279 58.9471 38.7568 59.4688 38.7568 60.1133V63.6164H5.18971C3.61409 63.6164 2.33235 62.3341 2.33235 60.759V52.5308C5.47275 51.9774 7.86597 49.2293 7.86597 45.9324C7.86597 42.6355 5.47275 39.8874 2.33235 39.3339V31.1057C2.33235 29.5307 3.61409 28.2484 5.18971 28.2484L38.7568 28.2484V31.7514C38.7568 32.396 39.279 32.9176 39.923 32.9176C40.5669 32.9176 41.0892 32.396 41.0892 31.7514V28.2484H46.0715C47.6471 28.2484 48.9288 29.5307 48.9288 31.1057V39.3339C45.7878 39.8874 43.3946 42.6355 43.3946 45.9324C43.3946 49.2293 45.7878 51.9774 48.9288 52.5308Z" fill="#072D4C"/>
<path d="M39.7052 36.9277C39.0613 36.9277 38.5391 37.4494 38.5391 38.0939V42.7632C38.5391 43.4077 39.0613 43.9293 39.7052 43.9293C40.3492 43.9293 40.8714 43.4077 40.8714 42.7632V38.0939C40.8714 37.4494 40.3492 36.9277 39.7052 36.9277Z" fill="#072D4C"/>
<path d="M39.7052 47.9375C39.0613 47.9375 38.5391 48.4591 38.5391 49.1037V53.7729C38.5391 54.4175 39.0613 54.9391 39.7052 54.9391C40.3492 54.9391 40.8714 54.4175 40.8714 53.7729V49.1037C40.8714 48.4591 40.3492 47.9375 39.7052 47.9375Z" fill="#072D4C"/>
<path d="M26.0019 55.4218L28.3408 47.2372L31.2699 47.2372C31.6158 47.2372 31.9476 47.0997 32.1922 46.8551C32.4368 46.6105 32.5742 46.2788 32.5742 45.9328C32.5742 45.5869 32.4368 45.2551 32.1922 45.0105C31.9476 44.7659 31.6158 44.6285 31.2699 44.6285L28.3408 44.6285L26.0019 36.4438C25.9237 36.1713 25.759 35.9317 25.5326 35.7611C25.3062 35.5904 25.0304 35.4981 24.747 35.498L20.8331 35.498C20.6618 35.498 20.4922 35.5317 20.3339 35.5972C20.1756 35.6627 20.0317 35.7588 19.9106 35.8799C19.7894 36.0011 19.6933 36.1449 19.6278 36.3031C19.5622 36.4614 19.5285 36.6311 19.5285 36.8024L19.5285 44.6285L13.9453 44.6285L12.9379 41.6071C12.8399 41.3133 12.6406 41.064 12.3756 40.9038C12.1106 40.7435 11.7972 40.6828 11.4916 40.7324C11.1859 40.782 10.9079 40.9388 10.7072 41.1747C10.5065 41.4105 10.3963 41.7101 10.3963 42.0198L10.3963 49.8459C10.3963 50.1555 10.5065 50.4551 10.7072 50.691C10.9078 50.9268 11.1859 51.0836 11.4916 51.1332C11.7972 51.1829 12.1106 51.1221 12.3756 50.9619C12.6406 50.8016 12.8399 50.5523 12.9379 50.2586L13.9453 47.2372L19.5285 47.2372L19.5285 55.0632C19.5285 55.2346 19.5622 55.4042 19.6278 55.5625C19.6933 55.7208 19.7894 55.8646 19.9106 55.9857C20.0317 56.1068 20.1756 56.2029 20.3339 56.2684C20.4922 56.334 20.6618 56.3677 20.8331 56.3676L24.747 56.3676C25.0304 56.3675 25.3062 56.2752 25.5326 56.1046C25.759 55.934 25.9237 55.6943 26.0019 55.4218Z" fill="#FFC5C5"/>
<path d="M206.947 69.6723C207.591 69.6723 208.113 69.1507 208.113 68.5062V59.2132C208.113 56.3512 205.784 54.0234 202.923 54.0234H162.041C159.18 54.0234 156.852 56.3512 156.852 59.2132V68.5062C156.852 69.1507 157.374 69.6723 158.018 69.6723C160.426 69.6723 162.385 71.6312 162.385 74.0398C162.385 76.4484 160.426 78.4072 158.018 78.4072C157.374 78.4072 156.852 78.9289 156.852 79.5734V88.8664C156.852 91.7283 159.18 94.0562 162.041 94.0562H202.923C205.784 94.0562 208.113 91.7283 208.113 88.8664V79.5734C208.113 78.9289 207.591 78.4072 206.947 78.4072C204.538 78.4072 202.579 76.4484 202.579 74.0398C202.579 71.6312 204.538 69.6723 206.947 69.6723ZM205.78 80.6382V88.8664C205.78 90.4415 204.499 91.7238 202.923 91.7238H197.941V88.2207C197.941 87.5762 197.419 87.0545 196.775 87.0545C196.131 87.0545 195.608 87.5762 195.608 88.2207V91.7238H162.041C160.466 91.7238 159.184 90.4415 159.184 88.8664V80.6382C162.324 80.0848 164.718 77.3367 164.718 74.0398C164.718 70.7429 162.324 67.9948 159.184 67.4413V59.2132C159.184 57.6381 160.466 56.3558 162.041 56.3558L195.608 56.3558V59.8589C195.608 60.5034 196.131 61.025 196.775 61.025C197.419 61.025 197.941 60.5034 197.941 59.8589V56.3558H202.923C204.499 56.3558 205.78 57.6381 205.78 59.2132V67.4413C202.639 67.9948 200.246 70.7429 200.246 74.0398C200.246 77.3367 202.639 80.0848 205.78 80.6382Z" fill="#072D4C"/>
<path d="M196.557 65.0352C195.913 65.0352 195.391 65.5568 195.391 66.2013V70.8706C195.391 71.5151 195.913 72.0368 196.557 72.0368C197.201 72.0368 197.723 71.5151 197.723 70.8706V66.2013C197.723 65.5568 197.201 65.0352 196.557 65.0352Z" fill="#072D4C"/>
<path d="M196.557 76.0449C195.913 76.0449 195.391 76.5666 195.391 77.2111V81.8803C195.391 82.5249 195.913 83.0465 196.557 83.0465C197.201 83.0465 197.723 82.5249 197.723 81.8803V77.2111C197.723 76.5666 197.201 76.0449 196.557 76.0449Z" fill="#072D4C"/>
<path d="M179.22 65.4181C178.996 65.4217 178.777 65.4877 178.588 65.6088C178.4 65.7299 178.249 65.9013 178.152 66.1035L176.089 70.4316L171.344 71.1851C171.122 71.2199 170.914 71.3163 170.744 71.4631C170.573 71.61 170.448 71.8016 170.381 72.0161C170.315 72.2306 170.309 72.4594 170.367 72.6767C170.424 72.8939 170.541 73.0908 170.704 73.245L174.192 76.5432L173.446 81.2802C173.411 81.5018 173.438 81.7287 173.526 81.9353C173.613 82.1419 173.757 82.3199 173.941 82.4492C174.124 82.5784 174.341 82.6538 174.565 82.6667C174.789 82.6796 175.013 82.6295 175.21 82.5222L179.428 80.2313L183.711 82.4048C183.911 82.507 184.136 82.5511 184.361 82.5322C184.585 82.5132 184.799 82.4318 184.979 82.2974C185.159 82.1629 185.298 81.9807 185.38 81.7715C185.462 81.5622 185.483 81.3343 185.442 81.1136L184.563 76.3993L187.952 73.0027C188.11 72.8441 188.22 72.6447 188.271 72.4268C188.321 72.209 188.31 71.9815 188.238 71.7698C188.166 71.5581 188.036 71.3706 187.863 71.2286C187.69 71.0865 187.481 70.9954 187.259 70.9655L182.496 70.3407L180.311 66.0732C180.208 65.8732 180.052 65.7058 179.859 65.59C179.666 65.4742 179.445 65.4146 179.22 65.4181Z" fill="#FFC5C5"/>
</svg>
