<svg width="18" height="20" viewBox="0 0 18 20" fill="none" xmlns="http://www.w3.org/2000/svg">
<path fill-rule="evenodd" clip-rule="evenodd" d="M15.8992 4.63438L8.96623 1.59472L2.02795 4.63675C2.00066 6.18657 1.92965 10.4692 2.14012 11.2734C2.85759 14.014 5.14072 16.4117 8.92638 18.3999C12.9788 16.2781 15.288 13.7653 15.7906 10.929C15.9823 9.84589 15.9505 7.01355 15.8992 4.63438ZM16.9752 11.1386C16.685 12.7758 15.8888 14.3164 14.6084 15.7182C13.3584 17.0867 11.6103 18.3605 9.413 19.5029C9.26281 19.5822 9.09553 19.6236 8.92569 19.6235C8.75585 19.6235 8.5886 19.5819 8.43848 19.5025C6.38767 18.4329 4.72248 17.2316 3.48913 15.9322C2.23106 14.6062 1.38562 13.1413 0.976399 11.5779C0.793967 10.8809 0.750624 8.83637 0.826859 4.52081C0.82911 4.31878 0.889938 4.12173 1.00196 3.95358C1.11399 3.78543 1.2724 3.6534 1.45798 3.57351L8.54246 0.466975C8.6758 0.407623 8.82012 0.376953 8.96608 0.376953C9.11203 0.376953 9.25636 0.407623 9.3897 0.466975L16.4688 3.57065C16.6536 3.65043 16.8115 3.78189 16.9234 3.94923C17.0354 4.11657 17.0966 4.31267 17.0998 4.51397C17.1568 7.11971 17.1866 9.94445 16.9752 11.1386ZM13.1235 6.69748C13.2363 6.81027 13.2996 6.96325 13.2996 7.12275C13.2996 7.28226 13.2363 7.43523 13.1235 7.54803L9.14629 11.525C9.09048 11.581 9.02419 11.6253 8.95122 11.6556C8.87824 11.6859 8.80001 11.7015 8.721 11.7015C8.64199 11.7015 8.56376 11.6859 8.49078 11.6556C8.41781 11.6253 8.35152 11.581 8.29571 11.525L6.2852 9.51433C6.17353 9.4013 6.11113 9.24868 6.11161 9.08979C6.11209 8.93091 6.17542 8.77867 6.28777 8.66632C6.40012 8.55397 6.55236 8.49064 6.71124 8.49016C6.87013 8.48967 7.02275 8.55208 7.13578 8.66374L8.72113 10.2492L12.2729 6.69748C12.3857 6.58472 12.5387 6.52139 12.6982 6.52144C12.8578 6.52148 13.0107 6.58466 13.1235 6.69748Z" fill="#072D4C" stroke="#072D4C" stroke-width="0.4"/>
</svg>
