<svg width="112" height="85" viewBox="0 0 112 85" fill="none" xmlns="http://www.w3.org/2000/svg">
<path d="M57.8887 42.9747L59.5352 40.9774C60.5712 41.948 61.9217 42.4894 63.3277 42.5454C64.4747 42.5454 65.1592 42.0787 65.1592 41.332V41.2947C65.1592 40.5854 64.7337 40.212 62.6062 39.6707C60.0347 39.0174 58.3882 38.2894 58.3882 35.7507V35.7134C58.3882 33.38 60.2382 31.8494 62.8467 31.8494C64.5672 31.812 66.2322 32.3907 67.5642 33.4734L66.1027 35.6014C65.1592 34.8547 63.9937 34.4067 62.7912 34.332C61.7182 34.332 61.1632 34.836 61.1632 35.452V35.4894C61.1632 36.3294 61.6997 36.6094 63.9012 37.1694C66.4727 37.8414 67.9342 38.7747 67.9342 41.0147V41.052C67.9342 43.6094 66.0102 45.028 63.2722 45.028C61.3112 45.028 59.3872 44.3 57.8887 42.9747Z" fill="black"/>
<path d="M69.3398 42.9747L70.9863 40.9774C72.0223 41.948 73.3728 42.4894 74.7788 42.5454C75.9258 42.5454 76.6104 42.0787 76.6104 41.332V41.2947C76.6104 40.5854 76.1848 40.212 74.0573 39.6707C71.4858 39.0174 69.8393 38.2894 69.8393 35.7507V35.7134C69.8393 33.38 71.6894 31.8494 74.2979 31.8494C76.0184 31.812 77.6834 32.3907 79.0154 33.4734L77.5538 35.6014C76.6103 34.8547 75.4448 34.4067 74.2423 34.332C73.1693 34.332 72.6143 34.836 72.6143 35.452V35.4894C72.6143 36.3294 73.1508 36.6094 75.3523 37.1694C77.9238 37.8414 79.3854 38.7747 79.3854 41.0147V41.052C79.3854 43.6094 77.4614 45.028 74.7234 45.028C72.7439 45.028 70.8383 44.3 69.3398 42.9747Z" fill="black"/>
<path d="M81.8457 32H84.6392V42.2667H90.9847V44.8427H81.8457V32Z" fill="black"/>
<path d="M57.5557 51.3389L58.1847 50.5735C58.5917 50.9469 59.1097 51.1522 59.6462 51.1709C60.0902 51.1709 60.3492 51.0029 60.3492 50.7042V50.6855C60.3492 50.4055 60.1827 50.2749 59.3687 50.0509C58.3882 49.7895 57.7407 49.5282 57.7407 48.5389V48.5202C57.7592 47.6615 58.4622 46.9895 59.3132 47.0269C59.3502 47.0269 59.4057 47.0269 59.4427 47.0455C60.1087 47.0269 60.7377 47.2509 61.2557 47.6802L60.7007 48.5015C60.3307 48.2215 59.8867 48.0349 59.4242 48.0162C59.0172 48.0162 58.7952 48.2029 58.7952 48.4455V48.4642C58.7952 48.7815 58.9987 48.8935 59.8497 49.1175C60.8487 49.3789 61.4037 49.7335 61.4037 50.5922V50.6109C61.4037 51.6002 60.6637 52.1415 59.6092 52.1415C58.8692 52.1229 58.1292 51.8429 57.5557 51.3389Z" fill="black"/>
<path d="M62.3662 47.1191H66.0477V48.0898H63.4207V49.0978H65.7332V50.0685H63.4207V51.1138H66.0847V52.0845H62.3662V47.1191Z" fill="black"/>
<path d="M66.843 49.6027C66.8245 48.2027 67.916 47.0641 69.285 47.0267C69.322 47.0267 69.359 47.0267 69.396 47.0267C70.1175 46.9894 70.8205 47.2694 71.32 47.7921L70.6355 48.5947C70.3025 48.2587 69.8585 48.0534 69.3775 48.0347C68.582 48.0534 67.9345 48.7254 67.953 49.5281C67.953 49.5467 67.953 49.5654 67.953 49.5654V49.5841C67.8975 50.3867 68.5265 51.0774 69.322 51.1334C69.3405 51.1334 69.359 51.1334 69.3775 51.1334C69.8585 51.1334 70.3395 50.9281 70.6725 50.5547L71.357 51.2454C70.8575 51.8427 70.1175 52.1601 69.359 52.1227C67.99 52.1414 66.88 51.0401 66.843 49.6774C66.843 49.6587 66.843 49.6401 66.843 49.6027Z" fill="black"/>
<path d="M72.1337 49.9378V47.1191H73.2067V49.9005C73.2067 50.7031 73.6137 51.1138 74.2612 51.1138C74.9087 51.1138 75.3157 50.7031 75.3157 49.9378V47.1191H76.3887V49.9005C76.5182 50.9831 75.7597 51.9911 74.6867 52.1218C74.5387 52.1405 74.3907 52.1405 74.2427 52.1218C73.1697 52.2338 72.2262 51.4498 72.1152 50.3671C72.1152 50.2365 72.1152 50.0871 72.1337 49.9378Z" fill="black"/>
<path d="M77.499 47.118H79.7375C80.2555 47.0806 80.7735 47.2673 81.162 47.622C81.4395 47.9206 81.606 48.3313 81.5875 48.742V48.7606C81.6245 49.4513 81.199 50.086 80.533 50.2913L81.7355 52.046H80.4775L79.423 50.4593H78.572V52.046H77.499V47.118ZM79.6635 49.526C80.1815 49.526 80.496 49.246 80.496 48.8353V48.8166C80.496 48.35 80.1815 48.1073 79.645 48.1073H78.572V49.526H79.6635Z" fill="black"/>
<path d="M82.5674 47.1191H86.2489V48.0898H83.6219V49.0978H85.9344V50.0685H83.6219V51.1138H86.2859V52.0845H82.5674V47.1191Z" fill="black"/>
<path d="M87.248 47.1192H89.1535C90.504 47.0258 91.651 48.0525 91.7435 49.4152C91.7435 49.4712 91.7435 49.5272 91.7435 49.5832V49.6018C91.7435 50.9645 90.652 52.0658 89.3015 52.0845C89.246 52.0845 89.1905 52.0845 89.1535 52.0845H87.248V47.1192ZM89.1535 51.0765C89.9305 51.1138 90.578 50.5352 90.6335 49.7512C90.6335 49.6952 90.6335 49.6578 90.6335 49.6018V49.5832C90.6705 48.7992 90.0785 48.1272 89.3015 48.0898C89.246 48.0898 89.209 48.0898 89.1535 48.0898H88.321V51.0578L89.1535 51.0765Z" fill="black"/>
<path d="M19.6494 43.2554C19.6494 54.5487 30.5644 60.2794 35.2449 62.2207L35.4114 62.2954C35.7629 62.4634 36.1699 62.4634 36.5029 62.2954L36.6694 62.2207C41.3684 60.2794 52.2649 54.5487 52.2649 43.2554V28.1354C52.2649 27.5567 51.8764 27.0527 51.3214 26.922L36.2439 23.1514C36.0404 23.0954 35.8369 23.0954 35.6519 23.1514L20.5744 26.922C20.0194 27.0527 19.6309 27.5567 19.6309 28.1354M49.8044 43.2554C49.8044 52.8687 40.3139 57.9834 35.9849 59.8127C31.6374 57.9834 22.1654 52.8687 22.1654 43.2554V29.106L35.9849 25.6527L49.8044 29.106V43.2554Z" fill="black"/>
<path d="M35.9294 30.6914C33.1544 30.6914 30.8974 32.9687 30.8974 35.7687V37.0194C29.9169 37.1874 29.2139 38.0274 29.2139 39.0167V47.9021C29.2139 49.0221 30.1204 49.9367 31.2304 49.9367H40.7579C41.8679 49.9367 42.7744 49.0221 42.7744 47.9021V39.0167C42.7744 37.9901 41.9974 37.1314 40.9984 37.0007V35.7501C40.9429 32.9501 38.7044 30.6914 35.9294 30.6914ZM35.9294 32.8941C37.5019 32.8941 38.7784 34.1821 38.7784 35.7687V36.9821H33.0989V35.7687C33.0804 34.1821 34.3569 32.8941 35.9294 32.8941ZM40.5544 47.7154H31.3969V39.2034H40.5544V47.7154ZM37.7054 40.6967L39.2224 42.2274L36.9284 44.5421L35.4114 46.0727L33.8944 44.5421L32.7289 43.3661L34.2459 41.8354L35.4114 43.0114L37.7054 40.6967Z" fill="black"/>
</svg>
