<svg width="36" height="33" viewBox="0 0 36 33" fill="none" xmlns="http://www.w3.org/2000/svg">
<path d="M10.1795 0.09375C8.5024 0.09375 7.13291 1.54946 7.13291 3.30879V4.11184H4.01583C2.17261 4.11184 0.666992 5.68673 0.666992 7.60213V28.6035C0.666992 30.5245 2.17261 32.0938 4.01583 32.0938H31.9821C33.8199 32.0938 35.3337 30.5245 35.3337 28.6035V7.60213C35.3337 5.68673 33.8199 4.11184 31.9821 4.11184H28.8677V3.30879C28.8677 1.54946 27.4982 0.09375 25.8184 0.09375C24.1331 0.09375 22.7636 1.54946 22.7636 3.30879V4.11184H13.2343V3.30879C13.2343 1.54946 11.8649 0.09375 10.1795 0.09375ZM10.1795 1.89565C10.9228 1.89565 11.5055 2.5029 11.5055 3.30879V6.56639C11.5055 7.36944 10.9228 7.97102 10.1795 7.97102C9.43899 7.97102 8.86179 7.36944 8.86179 6.56639V3.30879C8.86179 2.5029 9.43899 1.89565 10.1795 1.89565ZM25.8184 1.89565C26.5617 1.89565 27.1389 2.5029 27.1389 3.30879V6.56639C27.1389 7.36944 26.5617 7.97102 25.8184 7.97102C25.0778 7.97102 24.4925 7.36944 24.4925 6.56639V3.30879C24.4925 2.5029 25.0778 1.89565 25.8184 1.89565ZM4.01583 5.91374H7.13291V6.56639C7.13291 8.32289 8.5024 9.77859 10.1795 9.77859C11.8649 9.77859 13.2343 8.32289 13.2343 6.56639V5.91374H22.7636V6.56639C22.7636 8.32289 24.1331 9.77859 25.8184 9.77859C27.4982 9.77859 28.8677 8.32289 28.8677 6.56639V5.91374H31.9821C32.8969 5.91374 33.6048 6.6572 33.6048 7.60213V10.9874H2.39586V7.60213C2.39586 6.6572 3.10103 5.91374 4.01583 5.91374ZM2.39586 12.7893H33.6048V28.6035C33.6048 29.5569 32.8969 30.2919 31.9821 30.2919H4.01583C3.10103 30.2919 2.39586 29.5569 2.39586 28.6035V12.7893Z" fill="white"/>
<path d="M17.9299 14.9259C17.7618 14.9285 17.5978 14.978 17.4564 15.0688C17.315 15.1596 17.2019 15.288 17.1297 15.4395L15.5832 18.6829L12.0276 19.2476C11.8611 19.2737 11.7052 19.3459 11.5776 19.4559C11.4501 19.566 11.356 19.7096 11.3061 19.8703C11.2562 20.0311 11.2524 20.2026 11.2951 20.3653C11.3379 20.5281 11.4255 20.6757 11.5481 20.7913L14.1615 23.2629L13.6025 26.8127C13.5763 26.9788 13.5971 27.1488 13.6627 27.3037C13.7283 27.4585 13.836 27.5919 13.9736 27.6887C14.1113 27.7856 14.2733 27.8421 14.4414 27.8517C14.6095 27.8614 14.777 27.8239 14.9248 27.7435L18.086 26.0267L21.2953 27.6555C21.4455 27.7321 21.6141 27.7652 21.7821 27.7509C21.9501 27.7367 22.1107 27.6757 22.2457 27.575C22.3807 27.4742 22.4848 27.3377 22.546 27.1809C22.6073 27.0241 22.6232 26.8533 22.5921 26.6879L21.9338 23.155L24.4735 20.6097C24.5918 20.4908 24.6745 20.3414 24.7123 20.1781C24.7502 20.0149 24.7416 19.8444 24.6877 19.6858C24.6337 19.5271 24.5365 19.3866 24.4069 19.2802C24.2773 19.1737 24.1205 19.1054 23.9542 19.083L20.3845 18.6148L18.7471 15.4168C18.6705 15.2669 18.5533 15.1414 18.4089 15.0547C18.2644 14.9679 18.0985 14.9233 17.9299 14.9259Z" fill="#FFC5C5"/>
</svg>
